%TF.GenerationSoftware,KiCad,Pcbnew,(6.0.10)*%
%TF.CreationDate,2023-02-14T22:37:11+03:00*%
%TF.ProjectId,BluePill,426c7565-5069-46c6-9c2e-6b696361645f,rev?*%
%TF.SameCoordinates,Original*%
%TF.FileFunction,Copper,L2,Bot*%
%TF.FilePolarity,Positive*%
%FSLAX46Y46*%
G04 Gerber Fmt 4.6, Leading zero omitted, Abs format (unit mm)*
G04 Created by KiCad (PCBNEW (6.0.10)) date 2023-02-14 22:37:11*
%MOMM*%
%LPD*%
G01*
G04 APERTURE LIST*
%TA.AperFunction,ComponentPad*%
%ADD10R,1.700000X1.700000*%
%TD*%
%TA.AperFunction,ComponentPad*%
%ADD11O,1.700000X1.700000*%
%TD*%
%TA.AperFunction,ComponentPad*%
%ADD12O,2.000000X1.450000*%
%TD*%
%TA.AperFunction,ComponentPad*%
%ADD13O,1.800000X1.150000*%
%TD*%
%TA.AperFunction,ViaPad*%
%ADD14C,0.800000*%
%TD*%
%TA.AperFunction,Conductor*%
%ADD15C,0.300000*%
%TD*%
G04 APERTURE END LIST*
D10*
%TO.P,J1,1,Pin_1*%
%TO.N,+3.3V*%
X112359600Y-47244000D03*
D11*
%TO.P,J1,2,Pin_2*%
%TO.N,/USART1_TX*%
X109819600Y-47244000D03*
%TO.P,J1,3,Pin_3*%
%TO.N,/USART1_RX*%
X107279600Y-47244000D03*
%TO.P,J1,4,Pin_4*%
%TO.N,GND*%
X104739600Y-47244000D03*
%TD*%
D10*
%TO.P,J2,1,Pin_1*%
%TO.N,+3.3V*%
X110677800Y-82931000D03*
D11*
%TO.P,J2,2,Pin_2*%
%TO.N,/I2C2_SCL*%
X113217800Y-82931000D03*
%TO.P,J2,3,Pin_3*%
%TO.N,/I2C2_SDA*%
X115757800Y-82931000D03*
%TO.P,J2,4,Pin_4*%
%TO.N,GND*%
X118297800Y-82931000D03*
%TD*%
D10*
%TO.P,J3,1,Pin_1*%
%TO.N,+3.3V*%
X124958000Y-47244000D03*
D11*
%TO.P,J3,2,Pin_2*%
%TO.N,/SWDIO*%
X122418000Y-47244000D03*
%TO.P,J3,3,Pin_3*%
%TO.N,/SWCLK*%
X119878000Y-47244000D03*
%TO.P,J3,4,Pin_4*%
%TO.N,GND*%
X117338000Y-47244000D03*
%TD*%
D12*
%TO.P,J4,6,Shield*%
%TO.N,unconnected-(J4-Pad6)*%
X129475000Y-58445000D03*
D13*
X133275000Y-58295000D03*
X133275000Y-66045000D03*
D12*
X129475000Y-65895000D03*
%TD*%
D14*
%TO.N,GND*%
X131267200Y-60858400D03*
%TO.N,+3.3V*%
X109626400Y-53187600D03*
%TO.N,GND*%
X114300000Y-51917600D03*
X98298000Y-60756800D03*
X104597200Y-61722000D03*
X105308400Y-63398400D03*
X98247200Y-67564000D03*
X98145600Y-51511200D03*
X127660400Y-69697600D03*
X127711200Y-68427600D03*
X128270000Y-73660000D03*
X131419600Y-71577200D03*
X130200400Y-71577200D03*
X105308400Y-66649600D03*
X109778800Y-71983600D03*
X112064800Y-72085200D03*
X119024400Y-73558400D03*
X116535200Y-66141600D03*
X112674400Y-61010800D03*
X111556800Y-64262000D03*
%TD*%
D15*
%TO.N,+3.3V*%
X112359600Y-50454400D02*
X109626400Y-53187600D01*
X112359600Y-47244000D02*
X112359600Y-50454400D01*
%TD*%
%TA.AperFunction,Conductor*%
%TO.N,GND*%
G36*
X131984563Y-44802414D02*
G01*
X132000000Y-44805136D01*
X132010854Y-44803222D01*
X132019753Y-44803222D01*
X132034608Y-44802314D01*
X132296606Y-44816044D01*
X132327839Y-44817681D01*
X132340955Y-44819059D01*
X132658691Y-44869384D01*
X132671591Y-44872126D01*
X132982326Y-44955387D01*
X132994869Y-44959463D01*
X133295184Y-45074743D01*
X133307233Y-45080107D01*
X133593867Y-45226155D01*
X133605288Y-45232749D01*
X133875086Y-45407957D01*
X133885756Y-45415710D01*
X134135752Y-45618153D01*
X134145553Y-45626978D01*
X134373022Y-45854447D01*
X134381847Y-45864248D01*
X134584290Y-46114244D01*
X134592043Y-46124914D01*
X134767251Y-46394712D01*
X134773845Y-46406133D01*
X134919893Y-46692767D01*
X134925257Y-46704816D01*
X135040537Y-47005131D01*
X135044613Y-47017674D01*
X135127874Y-47328409D01*
X135130616Y-47341309D01*
X135180941Y-47659045D01*
X135182319Y-47672162D01*
X135197686Y-47965392D01*
X135196778Y-47980247D01*
X135196778Y-47989146D01*
X135194864Y-48000000D01*
X135196778Y-48010855D01*
X135197586Y-48015437D01*
X135199500Y-48037317D01*
X135199500Y-82962683D01*
X135197586Y-82984563D01*
X135194864Y-83000000D01*
X135196778Y-83010854D01*
X135196778Y-83019753D01*
X135197686Y-83034608D01*
X135182319Y-83327838D01*
X135180941Y-83340954D01*
X135171797Y-83398685D01*
X135130616Y-83658691D01*
X135127874Y-83671591D01*
X135125248Y-83681391D01*
X135055012Y-83943518D01*
X135044613Y-83982326D01*
X135040537Y-83994869D01*
X134925257Y-84295184D01*
X134919893Y-84307233D01*
X134773845Y-84593867D01*
X134767251Y-84605288D01*
X134592043Y-84875086D01*
X134584290Y-84885756D01*
X134381847Y-85135752D01*
X134373022Y-85145553D01*
X134145553Y-85373022D01*
X134135752Y-85381847D01*
X133885756Y-85584290D01*
X133875086Y-85592043D01*
X133605288Y-85767251D01*
X133593867Y-85773845D01*
X133307233Y-85919893D01*
X133295184Y-85925257D01*
X132994869Y-86040537D01*
X132982326Y-86044613D01*
X132671591Y-86127874D01*
X132658691Y-86130616D01*
X132340955Y-86180941D01*
X132327839Y-86182319D01*
X132296606Y-86183956D01*
X132034608Y-86197686D01*
X132019753Y-86196778D01*
X132010854Y-86196778D01*
X132000000Y-86194864D01*
X131989145Y-86196778D01*
X131984563Y-86197586D01*
X131962683Y-86199500D01*
X97037317Y-86199500D01*
X97015437Y-86197586D01*
X97010855Y-86196778D01*
X97000000Y-86194864D01*
X96989146Y-86196778D01*
X96980247Y-86196778D01*
X96965392Y-86197686D01*
X96703394Y-86183956D01*
X96672161Y-86182319D01*
X96659045Y-86180941D01*
X96341309Y-86130616D01*
X96328409Y-86127874D01*
X96017674Y-86044613D01*
X96005131Y-86040537D01*
X95704816Y-85925257D01*
X95692767Y-85919893D01*
X95406133Y-85773845D01*
X95394712Y-85767251D01*
X95124914Y-85592043D01*
X95114244Y-85584290D01*
X94864248Y-85381847D01*
X94854447Y-85373022D01*
X94626978Y-85145553D01*
X94618153Y-85135752D01*
X94415710Y-84885756D01*
X94407957Y-84875086D01*
X94232749Y-84605288D01*
X94226155Y-84593867D01*
X94080107Y-84307233D01*
X94074743Y-84295184D01*
X93959463Y-83994869D01*
X93955387Y-83982326D01*
X93944989Y-83943518D01*
X93874752Y-83681391D01*
X93872126Y-83671591D01*
X93869384Y-83658691D01*
X93828203Y-83398685D01*
X93819059Y-83340954D01*
X93817681Y-83327838D01*
X93802314Y-83034608D01*
X93803222Y-83019753D01*
X93803222Y-83010854D01*
X93805136Y-83000000D01*
X93802414Y-82984563D01*
X93800500Y-82962683D01*
X93800500Y-82850389D01*
X95595996Y-82850389D01*
X95596196Y-82855718D01*
X95596196Y-82855719D01*
X95597887Y-82900754D01*
X95604913Y-83087895D01*
X95653719Y-83320504D01*
X95655677Y-83325463D01*
X95655678Y-83325465D01*
X95733971Y-83523713D01*
X95741020Y-83541563D01*
X95743787Y-83546122D01*
X95743788Y-83546125D01*
X95791628Y-83624963D01*
X95864319Y-83744753D01*
X95867816Y-83748783D01*
X95949104Y-83842459D01*
X96020090Y-83924264D01*
X96024216Y-83927647D01*
X96024220Y-83927651D01*
X96106199Y-83994869D01*
X96203880Y-84074962D01*
X96208516Y-84077601D01*
X96208519Y-84077603D01*
X96309561Y-84135119D01*
X96410433Y-84192539D01*
X96633844Y-84273634D01*
X96639092Y-84274583D01*
X96863641Y-84315188D01*
X96863648Y-84315189D01*
X96867725Y-84315926D01*
X96885991Y-84316787D01*
X96891131Y-84317030D01*
X96891138Y-84317030D01*
X96892619Y-84317100D01*
X97059680Y-84317100D01*
X97142026Y-84310113D01*
X97231512Y-84302520D01*
X97231516Y-84302519D01*
X97236823Y-84302069D01*
X97241978Y-84300731D01*
X97241984Y-84300730D01*
X97461703Y-84243702D01*
X97461702Y-84243702D01*
X97466874Y-84242360D01*
X97583327Y-84189902D01*
X97678715Y-84146933D01*
X97678718Y-84146932D01*
X97683576Y-84144743D01*
X97880732Y-84012009D01*
X97889515Y-84003631D01*
X97969764Y-83927077D01*
X98052705Y-83847955D01*
X98069303Y-83825646D01*
X109527300Y-83825646D01*
X109530418Y-83851846D01*
X109534256Y-83860486D01*
X109534256Y-83860487D01*
X109567369Y-83935034D01*
X109575861Y-83954153D01*
X109584094Y-83962372D01*
X109584095Y-83962373D01*
X109610163Y-83988395D01*
X109655087Y-84033241D01*
X109665724Y-84037944D01*
X109665726Y-84037945D01*
X109703182Y-84054504D01*
X109757473Y-84078506D01*
X109783154Y-84081500D01*
X111572446Y-84081500D01*
X111576150Y-84081059D01*
X111576153Y-84081059D01*
X111583546Y-84080179D01*
X111598646Y-84078382D01*
X111613967Y-84071577D01*
X111690318Y-84037663D01*
X111700953Y-84032939D01*
X111780041Y-83953713D01*
X111793061Y-83924264D01*
X111811065Y-83883538D01*
X111825306Y-83851327D01*
X111828300Y-83825646D01*
X111828300Y-83141673D01*
X111848302Y-83073552D01*
X111901958Y-83027059D01*
X111972232Y-83016955D01*
X112036812Y-83046449D01*
X112075196Y-83106175D01*
X112076458Y-83111784D01*
X112076596Y-83111749D01*
X112128645Y-83316690D01*
X112131062Y-83321933D01*
X112185636Y-83440313D01*
X112217169Y-83508714D01*
X112339205Y-83681391D01*
X112343339Y-83685418D01*
X112483527Y-83821983D01*
X112490665Y-83828937D01*
X112495461Y-83832142D01*
X112495464Y-83832144D01*
X112627296Y-83920231D01*
X112666477Y-83946411D01*
X112671785Y-83948692D01*
X112671786Y-83948692D01*
X112855450Y-84027600D01*
X112855453Y-84027601D01*
X112860753Y-84029878D01*
X112866382Y-84031152D01*
X112866383Y-84031152D01*
X113061350Y-84075269D01*
X113061353Y-84075269D01*
X113066986Y-84076544D01*
X113072757Y-84076771D01*
X113072759Y-84076771D01*
X113134789Y-84079208D01*
X113278270Y-84084846D01*
X113283979Y-84084018D01*
X113283983Y-84084018D01*
X113481815Y-84055333D01*
X113481819Y-84055332D01*
X113487530Y-84054504D01*
X113574379Y-84025023D01*
X113682283Y-83988395D01*
X113682288Y-83988393D01*
X113687755Y-83986537D01*
X113692798Y-83983713D01*
X113867195Y-83886046D01*
X113867199Y-83886043D01*
X113872242Y-83883219D01*
X114034812Y-83748012D01*
X114170019Y-83585442D01*
X114172843Y-83580399D01*
X114172846Y-83580395D01*
X114270513Y-83405998D01*
X114270514Y-83405996D01*
X114273337Y-83400955D01*
X114275193Y-83395488D01*
X114275195Y-83395483D01*
X114339447Y-83206200D01*
X114341304Y-83200730D01*
X114342133Y-83195015D01*
X114362890Y-83051860D01*
X114392460Y-82987315D01*
X114452232Y-82949003D01*
X114523229Y-82949087D01*
X114582909Y-82987542D01*
X114612325Y-83052158D01*
X114613315Y-83061695D01*
X114616596Y-83111749D01*
X114618017Y-83117345D01*
X114618018Y-83117350D01*
X114640584Y-83206200D01*
X114668645Y-83316690D01*
X114671062Y-83321933D01*
X114725636Y-83440313D01*
X114757169Y-83508714D01*
X114879205Y-83681391D01*
X114883339Y-83685418D01*
X115023527Y-83821983D01*
X115030665Y-83828937D01*
X115035461Y-83832142D01*
X115035464Y-83832144D01*
X115167296Y-83920231D01*
X115206477Y-83946411D01*
X115211785Y-83948692D01*
X115211786Y-83948692D01*
X115395450Y-84027600D01*
X115395453Y-84027601D01*
X115400753Y-84029878D01*
X115406382Y-84031152D01*
X115406383Y-84031152D01*
X115601350Y-84075269D01*
X115601353Y-84075269D01*
X115606986Y-84076544D01*
X115612757Y-84076771D01*
X115612759Y-84076771D01*
X115674789Y-84079208D01*
X115818270Y-84084846D01*
X115823979Y-84084018D01*
X115823983Y-84084018D01*
X116021815Y-84055333D01*
X116021819Y-84055332D01*
X116027530Y-84054504D01*
X116114379Y-84025023D01*
X116222283Y-83988395D01*
X116222288Y-83988393D01*
X116227755Y-83986537D01*
X116232798Y-83983713D01*
X116407195Y-83886046D01*
X116407199Y-83886043D01*
X116412242Y-83883219D01*
X116574812Y-83748012D01*
X116710019Y-83585442D01*
X116712843Y-83580399D01*
X116712846Y-83580395D01*
X116809951Y-83407001D01*
X116860688Y-83357339D01*
X116930219Y-83342992D01*
X116996470Y-83368513D01*
X117034080Y-83415317D01*
X117121874Y-83603591D01*
X117127357Y-83613087D01*
X117256531Y-83797567D01*
X117263587Y-83805975D01*
X117422825Y-83965213D01*
X117431233Y-83972269D01*
X117615713Y-84101443D01*
X117625208Y-84106926D01*
X117829327Y-84202108D01*
X117839619Y-84205854D01*
X118030303Y-84256948D01*
X118044399Y-84256612D01*
X118047800Y-84248670D01*
X118047800Y-84243521D01*
X118547800Y-84243521D01*
X118551773Y-84257052D01*
X118560322Y-84258281D01*
X118755981Y-84205854D01*
X118766273Y-84202108D01*
X118970392Y-84106926D01*
X118979887Y-84101443D01*
X119164367Y-83972269D01*
X119172775Y-83965213D01*
X119332013Y-83805975D01*
X119339069Y-83797567D01*
X119468243Y-83613087D01*
X119473726Y-83603591D01*
X119568908Y-83399473D01*
X119572654Y-83389181D01*
X119623748Y-83198497D01*
X119623412Y-83184401D01*
X119615470Y-83181000D01*
X118565915Y-83181000D01*
X118550676Y-83185475D01*
X118549471Y-83186865D01*
X118547800Y-83194548D01*
X118547800Y-84243521D01*
X118047800Y-84243521D01*
X118047800Y-82933789D01*
X130595996Y-82933789D01*
X130596196Y-82939118D01*
X130596196Y-82939119D01*
X130599118Y-83016955D01*
X130604913Y-83171295D01*
X130653719Y-83403904D01*
X130655677Y-83408863D01*
X130655678Y-83408865D01*
X130708084Y-83541563D01*
X130741020Y-83624963D01*
X130743787Y-83629522D01*
X130743788Y-83629525D01*
X130813832Y-83744954D01*
X130864319Y-83828153D01*
X130867816Y-83832183D01*
X130980789Y-83962373D01*
X131020090Y-84007664D01*
X131024216Y-84011047D01*
X131024220Y-84011051D01*
X131122614Y-84091728D01*
X131203880Y-84158362D01*
X131208516Y-84161001D01*
X131208519Y-84161003D01*
X131287311Y-84205854D01*
X131410433Y-84275939D01*
X131633844Y-84357034D01*
X131639092Y-84357983D01*
X131863641Y-84398588D01*
X131863648Y-84398589D01*
X131867725Y-84399326D01*
X131885991Y-84400187D01*
X131891131Y-84400430D01*
X131891138Y-84400430D01*
X131892619Y-84400500D01*
X132059680Y-84400500D01*
X132142026Y-84393513D01*
X132231512Y-84385920D01*
X132231516Y-84385919D01*
X132236823Y-84385469D01*
X132241978Y-84384131D01*
X132241984Y-84384130D01*
X132461703Y-84327102D01*
X132461702Y-84327102D01*
X132466874Y-84325760D01*
X132616672Y-84258281D01*
X132678715Y-84230333D01*
X132678718Y-84230332D01*
X132683576Y-84228143D01*
X132880732Y-84095409D01*
X132895313Y-84081500D01*
X132972016Y-84008328D01*
X133052705Y-83931355D01*
X133194579Y-83740670D01*
X133302295Y-83528807D01*
X133328192Y-83445407D01*
X133371193Y-83306919D01*
X133372775Y-83301824D01*
X133388339Y-83184401D01*
X133403304Y-83071494D01*
X133403304Y-83071491D01*
X133404004Y-83066211D01*
X133402818Y-83034608D01*
X133399607Y-82949087D01*
X133395087Y-82828705D01*
X133346281Y-82596096D01*
X133344322Y-82591135D01*
X133260941Y-82380002D01*
X133260940Y-82380000D01*
X133258980Y-82375037D01*
X133233152Y-82332473D01*
X133138448Y-82176407D01*
X133135681Y-82171847D01*
X133100974Y-82131850D01*
X132983410Y-81996369D01*
X132983408Y-81996367D01*
X132979910Y-81992336D01*
X132975784Y-81988953D01*
X132975780Y-81988949D01*
X132800248Y-81845023D01*
X132796120Y-81841638D01*
X132791484Y-81838999D01*
X132791481Y-81838997D01*
X132644049Y-81755074D01*
X132589567Y-81724061D01*
X132366156Y-81642966D01*
X132343361Y-81638844D01*
X132136359Y-81601412D01*
X132136352Y-81601411D01*
X132132275Y-81600674D01*
X132114009Y-81599813D01*
X132108869Y-81599570D01*
X132108862Y-81599570D01*
X132107381Y-81599500D01*
X131940320Y-81599500D01*
X131874889Y-81605052D01*
X131768488Y-81614080D01*
X131768484Y-81614081D01*
X131763177Y-81614531D01*
X131758022Y-81615869D01*
X131758016Y-81615870D01*
X131652341Y-81643298D01*
X131533126Y-81674240D01*
X131435766Y-81718097D01*
X131321285Y-81769667D01*
X131321282Y-81769668D01*
X131316424Y-81771857D01*
X131312000Y-81774836D01*
X131311999Y-81774836D01*
X131305504Y-81779209D01*
X131119268Y-81904591D01*
X131115411Y-81908270D01*
X131115409Y-81908272D01*
X131104706Y-81918482D01*
X130947295Y-82068645D01*
X130805421Y-82259330D01*
X130697705Y-82471193D01*
X130696124Y-82476284D01*
X130696123Y-82476287D01*
X130657301Y-82601315D01*
X130627225Y-82698176D01*
X130626524Y-82703465D01*
X130600375Y-82900754D01*
X130595996Y-82933789D01*
X118047800Y-82933789D01*
X118047800Y-82662885D01*
X118547800Y-82662885D01*
X118552275Y-82678124D01*
X118553665Y-82679329D01*
X118561348Y-82681000D01*
X119610321Y-82681000D01*
X119623852Y-82677027D01*
X119625081Y-82668478D01*
X119572654Y-82472819D01*
X119568908Y-82462527D01*
X119473726Y-82258409D01*
X119468243Y-82248913D01*
X119339069Y-82064433D01*
X119332013Y-82056025D01*
X119172775Y-81896787D01*
X119164367Y-81889731D01*
X118979887Y-81760557D01*
X118970392Y-81755074D01*
X118766273Y-81659892D01*
X118755981Y-81656146D01*
X118565297Y-81605052D01*
X118551201Y-81605388D01*
X118547800Y-81613330D01*
X118547800Y-82662885D01*
X118047800Y-82662885D01*
X118047800Y-81618479D01*
X118043827Y-81604948D01*
X118035278Y-81603719D01*
X117839619Y-81656146D01*
X117829327Y-81659892D01*
X117625209Y-81755074D01*
X117615713Y-81760557D01*
X117431233Y-81889731D01*
X117422825Y-81896787D01*
X117263587Y-82056025D01*
X117256531Y-82064433D01*
X117127357Y-82248913D01*
X117121874Y-82258409D01*
X117032227Y-82450658D01*
X116985310Y-82503943D01*
X116917032Y-82523404D01*
X116849072Y-82502862D01*
X116805026Y-82453136D01*
X116745521Y-82332473D01*
X116745519Y-82332469D01*
X116742965Y-82327290D01*
X116633494Y-82180690D01*
X116619904Y-82162491D01*
X116619903Y-82162490D01*
X116616451Y-82157867D01*
X116489036Y-82040086D01*
X116465422Y-82018257D01*
X116465420Y-82018255D01*
X116461181Y-82014337D01*
X116409242Y-81981566D01*
X116287234Y-81904584D01*
X116287233Y-81904584D01*
X116282354Y-81901505D01*
X116085960Y-81823152D01*
X116080303Y-81822027D01*
X116080297Y-81822025D01*
X115884242Y-81783028D01*
X115884240Y-81783028D01*
X115878575Y-81781901D01*
X115872800Y-81781825D01*
X115872796Y-81781825D01*
X115766776Y-81780437D01*
X115667146Y-81779133D01*
X115661449Y-81780112D01*
X115661448Y-81780112D01*
X115464450Y-81813962D01*
X115464449Y-81813962D01*
X115458753Y-81814941D01*
X115260375Y-81888127D01*
X115255414Y-81891079D01*
X115255413Y-81891079D01*
X115085215Y-81992336D01*
X115078656Y-81996238D01*
X114919681Y-82135655D01*
X114788776Y-82301708D01*
X114786087Y-82306819D01*
X114786085Y-82306822D01*
X114752596Y-82370475D01*
X114690323Y-82488836D01*
X114627620Y-82690773D01*
X114626941Y-82696510D01*
X114612888Y-82815239D01*
X114585017Y-82880537D01*
X114526269Y-82920401D01*
X114455294Y-82922174D01*
X114394628Y-82885295D01*
X114363530Y-82821471D01*
X114362290Y-82811958D01*
X114357516Y-82759995D01*
X114353881Y-82720440D01*
X114296486Y-82516931D01*
X114285353Y-82494354D01*
X114205519Y-82332469D01*
X114202965Y-82327290D01*
X114093494Y-82180690D01*
X114079904Y-82162491D01*
X114079903Y-82162490D01*
X114076451Y-82157867D01*
X113949036Y-82040086D01*
X113925422Y-82018257D01*
X113925420Y-82018255D01*
X113921181Y-82014337D01*
X113869242Y-81981566D01*
X113747234Y-81904584D01*
X113747233Y-81904584D01*
X113742354Y-81901505D01*
X113545960Y-81823152D01*
X113540303Y-81822027D01*
X113540297Y-81822025D01*
X113344242Y-81783028D01*
X113344240Y-81783028D01*
X113338575Y-81781901D01*
X113332800Y-81781825D01*
X113332796Y-81781825D01*
X113226776Y-81780437D01*
X113127146Y-81779133D01*
X113121449Y-81780112D01*
X113121448Y-81780112D01*
X112924450Y-81813962D01*
X112924449Y-81813962D01*
X112918753Y-81814941D01*
X112720375Y-81888127D01*
X112715414Y-81891079D01*
X112715413Y-81891079D01*
X112545215Y-81992336D01*
X112538656Y-81996238D01*
X112379681Y-82135655D01*
X112248776Y-82301708D01*
X112246087Y-82306819D01*
X112246085Y-82306822D01*
X112212596Y-82370475D01*
X112150323Y-82488836D01*
X112087620Y-82690773D01*
X112086941Y-82696510D01*
X112079427Y-82759995D01*
X112051556Y-82825292D01*
X111992808Y-82865156D01*
X111921834Y-82866930D01*
X111861167Y-82830051D01*
X111830069Y-82766227D01*
X111828300Y-82745185D01*
X111828300Y-82036354D01*
X111825182Y-82010154D01*
X111779739Y-81907847D01*
X111771244Y-81899366D01*
X111708745Y-81836977D01*
X111700513Y-81828759D01*
X111689876Y-81824056D01*
X111689874Y-81824055D01*
X111630338Y-81797735D01*
X111598127Y-81783494D01*
X111572446Y-81780500D01*
X109783154Y-81780500D01*
X109779450Y-81780941D01*
X109779447Y-81780941D01*
X109772054Y-81781821D01*
X109756954Y-81783618D01*
X109748314Y-81787456D01*
X109748313Y-81787456D01*
X109681931Y-81816942D01*
X109654647Y-81829061D01*
X109575559Y-81908287D01*
X109530294Y-82010673D01*
X109527300Y-82036354D01*
X109527300Y-83825646D01*
X98069303Y-83825646D01*
X98194579Y-83657270D01*
X98302295Y-83445407D01*
X98314221Y-83407001D01*
X98371193Y-83223519D01*
X98372775Y-83218424D01*
X98386172Y-83117350D01*
X98403304Y-82988094D01*
X98403304Y-82988091D01*
X98404004Y-82982811D01*
X98395087Y-82745305D01*
X98346281Y-82512696D01*
X98342824Y-82503943D01*
X98260941Y-82296602D01*
X98260940Y-82296600D01*
X98258980Y-82291637D01*
X98233055Y-82248913D01*
X98138448Y-82093007D01*
X98135681Y-82088447D01*
X98087318Y-82032713D01*
X97983410Y-81912969D01*
X97983408Y-81912967D01*
X97979910Y-81908936D01*
X97975784Y-81905553D01*
X97975780Y-81905549D01*
X97824979Y-81781901D01*
X97796120Y-81758238D01*
X97791484Y-81755599D01*
X97791481Y-81755597D01*
X97616770Y-81656146D01*
X97589567Y-81640661D01*
X97366156Y-81559566D01*
X97360908Y-81558617D01*
X97136359Y-81518012D01*
X97136352Y-81518011D01*
X97132275Y-81517274D01*
X97114009Y-81516413D01*
X97108869Y-81516170D01*
X97108862Y-81516170D01*
X97107381Y-81516100D01*
X96940320Y-81516100D01*
X96857974Y-81523087D01*
X96768488Y-81530680D01*
X96768484Y-81530681D01*
X96763177Y-81531131D01*
X96758022Y-81532469D01*
X96758016Y-81532470D01*
X96646612Y-81561385D01*
X96533126Y-81590840D01*
X96471770Y-81618479D01*
X96321285Y-81686267D01*
X96321282Y-81686268D01*
X96316424Y-81688457D01*
X96119268Y-81821191D01*
X96115411Y-81824870D01*
X96115409Y-81824872D01*
X96051195Y-81886129D01*
X95947295Y-81985245D01*
X95805421Y-82175930D01*
X95697705Y-82387793D01*
X95696124Y-82392884D01*
X95696123Y-82392887D01*
X95657607Y-82516931D01*
X95627225Y-82614776D01*
X95626524Y-82620065D01*
X95598692Y-82830051D01*
X95595996Y-82850389D01*
X93800500Y-82850389D01*
X93800500Y-65887806D01*
X128169563Y-65887806D01*
X128171055Y-65904199D01*
X128180016Y-66002661D01*
X128187790Y-66088089D01*
X128189528Y-66093995D01*
X128189529Y-66093999D01*
X128214543Y-66178988D01*
X128244572Y-66281018D01*
X128337746Y-66459243D01*
X128463763Y-66615976D01*
X128617823Y-66745248D01*
X128623215Y-66748212D01*
X128623219Y-66748215D01*
X128719543Y-66801169D01*
X128794058Y-66842134D01*
X128799925Y-66843995D01*
X128799927Y-66843996D01*
X128909259Y-66878678D01*
X128985755Y-66902944D01*
X129142268Y-66920500D01*
X129800606Y-66920500D01*
X129950151Y-66905837D01*
X130142679Y-66847710D01*
X130235630Y-66798287D01*
X130314803Y-66756190D01*
X130314805Y-66756189D01*
X130320249Y-66753294D01*
X130378135Y-66706083D01*
X130471324Y-66630081D01*
X130471327Y-66630078D01*
X130476099Y-66626186D01*
X130481269Y-66619937D01*
X130600363Y-66475977D01*
X130600365Y-66475974D01*
X130604292Y-66471227D01*
X130699945Y-66294320D01*
X130759415Y-66102203D01*
X130760899Y-66088089D01*
X130770595Y-65995840D01*
X132070711Y-65995840D01*
X132071068Y-66002656D01*
X132071068Y-66002661D01*
X132076594Y-66108090D01*
X132080667Y-66185801D01*
X132131181Y-66369193D01*
X132219898Y-66537460D01*
X132342678Y-66682751D01*
X132348102Y-66686898D01*
X132348103Y-66686899D01*
X132488372Y-66794143D01*
X132488376Y-66794146D01*
X132493793Y-66798287D01*
X132666193Y-66878678D01*
X132748721Y-66897125D01*
X132846790Y-66919047D01*
X132846796Y-66919048D01*
X132851834Y-66920174D01*
X132857665Y-66920500D01*
X133647517Y-66920500D01*
X133789109Y-66905118D01*
X133969396Y-66844445D01*
X134132447Y-66746474D01*
X134270658Y-66615775D01*
X134320335Y-66542677D01*
X134373744Y-66464088D01*
X134373745Y-66464086D01*
X134377578Y-66458446D01*
X134410862Y-66375232D01*
X134445685Y-66288168D01*
X134445686Y-66288166D01*
X134448221Y-66281827D01*
X134476983Y-66108090D01*
X134478174Y-66100897D01*
X134478174Y-66100894D01*
X134479289Y-66094160D01*
X134478650Y-66081950D01*
X134469690Y-65911012D01*
X134469333Y-65904199D01*
X134418819Y-65720807D01*
X134330102Y-65552540D01*
X134207322Y-65407249D01*
X134151583Y-65364633D01*
X134061628Y-65295857D01*
X134061624Y-65295854D01*
X134056207Y-65291713D01*
X133883807Y-65211322D01*
X133801279Y-65192875D01*
X133703210Y-65170953D01*
X133703204Y-65170952D01*
X133698166Y-65169826D01*
X133692335Y-65169500D01*
X132902483Y-65169500D01*
X132760891Y-65184882D01*
X132580604Y-65245555D01*
X132417553Y-65343526D01*
X132279342Y-65474225D01*
X132275507Y-65479868D01*
X132226120Y-65552540D01*
X132172422Y-65631554D01*
X132169890Y-65637883D01*
X132169889Y-65637886D01*
X132136723Y-65720807D01*
X132101779Y-65808173D01*
X132070711Y-65995840D01*
X130770595Y-65995840D01*
X130779793Y-65908322D01*
X130779793Y-65908321D01*
X130780437Y-65902194D01*
X130762210Y-65701911D01*
X130756324Y-65681910D01*
X130707167Y-65514891D01*
X130705428Y-65508982D01*
X130702574Y-65503522D01*
X130700265Y-65497808D01*
X130702271Y-65496998D01*
X130690349Y-65436945D01*
X130716366Y-65370888D01*
X130764902Y-65335665D01*
X130764029Y-65333928D01*
X130908714Y-65261159D01*
X130915498Y-65257747D01*
X131018821Y-65169500D01*
X131038651Y-65152564D01*
X131038652Y-65152563D01*
X131044423Y-65147634D01*
X131143361Y-65009947D01*
X131193210Y-64885945D01*
X131203766Y-64859687D01*
X131203767Y-64859685D01*
X131206601Y-64852634D01*
X131230490Y-64684778D01*
X131230645Y-64670000D01*
X131228840Y-64655080D01*
X131211188Y-64509220D01*
X131210276Y-64501680D01*
X131150345Y-64343077D01*
X131054312Y-64203349D01*
X131042514Y-64192837D01*
X130933392Y-64095612D01*
X130933388Y-64095610D01*
X130927721Y-64090560D01*
X130777881Y-64011224D01*
X130613441Y-63969919D01*
X130605843Y-63969879D01*
X130605841Y-63969879D01*
X130528668Y-63969475D01*
X130443895Y-63969031D01*
X130436508Y-63970805D01*
X130436504Y-63970805D01*
X130293162Y-64005220D01*
X130279032Y-64008612D01*
X130272288Y-64012093D01*
X130272285Y-64012094D01*
X130267089Y-64014776D01*
X130128369Y-64086375D01*
X130000604Y-64197831D01*
X129903113Y-64336547D01*
X129841524Y-64494513D01*
X129819394Y-64662611D01*
X129826798Y-64729673D01*
X129814392Y-64799577D01*
X129766163Y-64851678D01*
X129701559Y-64869500D01*
X129149394Y-64869500D01*
X128999849Y-64884163D01*
X128807321Y-64942290D01*
X128801880Y-64945183D01*
X128635197Y-65033810D01*
X128635195Y-65033811D01*
X128629751Y-65036706D01*
X128624972Y-65040604D01*
X128478676Y-65159919D01*
X128478673Y-65159922D01*
X128473901Y-65163814D01*
X128469974Y-65168561D01*
X128469972Y-65168563D01*
X128349637Y-65314023D01*
X128349635Y-65314026D01*
X128345708Y-65318773D01*
X128250055Y-65495680D01*
X128244108Y-65514891D01*
X128209742Y-65625912D01*
X128190585Y-65687797D01*
X128189941Y-65693922D01*
X128189941Y-65693923D01*
X128188456Y-65708050D01*
X128169563Y-65887806D01*
X93800500Y-65887806D01*
X93800500Y-58232062D01*
X94915497Y-58232062D01*
X94916737Y-58239278D01*
X94916737Y-58239280D01*
X94933587Y-58337339D01*
X94945134Y-58404540D01*
X95013654Y-58565573D01*
X95117383Y-58706524D01*
X95122961Y-58711263D01*
X95122964Y-58711266D01*
X95245176Y-58815093D01*
X95245180Y-58815096D01*
X95250755Y-58819832D01*
X95296207Y-58843041D01*
X95347687Y-58869328D01*
X95406616Y-58899419D01*
X95413721Y-58901158D01*
X95413725Y-58901159D01*
X95494858Y-58921011D01*
X95576606Y-58941015D01*
X95582206Y-58941362D01*
X95582210Y-58941363D01*
X95585709Y-58941580D01*
X95585718Y-58941580D01*
X95587648Y-58941700D01*
X95713822Y-58941700D01*
X95805369Y-58931027D01*
X95836556Y-58927391D01*
X95836558Y-58927391D01*
X95843828Y-58926543D01*
X95850705Y-58924047D01*
X95850708Y-58924046D01*
X96001452Y-58869328D01*
X96008331Y-58866831D01*
X96154685Y-58770877D01*
X96275040Y-58643828D01*
X96362939Y-58492498D01*
X96379504Y-58437806D01*
X128169563Y-58437806D01*
X128171430Y-58458322D01*
X128181191Y-58565573D01*
X128187790Y-58638089D01*
X128189528Y-58643995D01*
X128189529Y-58643999D01*
X128225308Y-58765565D01*
X128244572Y-58831018D01*
X128261197Y-58862818D01*
X128332908Y-58999988D01*
X128337746Y-59009243D01*
X128463763Y-59165976D01*
X128617823Y-59295248D01*
X128623215Y-59298212D01*
X128623219Y-59298215D01*
X128717744Y-59350180D01*
X128794058Y-59392134D01*
X128799925Y-59393995D01*
X128799927Y-59393996D01*
X128979885Y-59451082D01*
X128985755Y-59452944D01*
X129142268Y-59470500D01*
X129701010Y-59470500D01*
X129769131Y-59490502D01*
X129815624Y-59544158D01*
X129825932Y-59612945D01*
X129820385Y-59655078D01*
X129820385Y-59655084D01*
X129819394Y-59662611D01*
X129837999Y-59831135D01*
X129896266Y-59990356D01*
X129900502Y-59996659D01*
X129900502Y-59996660D01*
X129913574Y-60016113D01*
X129990830Y-60131083D01*
X129996442Y-60136190D01*
X129996445Y-60136193D01*
X130110612Y-60240077D01*
X130110616Y-60240080D01*
X130116233Y-60245191D01*
X130122906Y-60248814D01*
X130122910Y-60248817D01*
X130258558Y-60322467D01*
X130258560Y-60322468D01*
X130265235Y-60326092D01*
X130272584Y-60328020D01*
X130421883Y-60367188D01*
X130421885Y-60367188D01*
X130429233Y-60369116D01*
X130515609Y-60370473D01*
X130591161Y-60371660D01*
X130591164Y-60371660D01*
X130598760Y-60371779D01*
X130606165Y-60370083D01*
X130606166Y-60370083D01*
X130666586Y-60356245D01*
X130764029Y-60333928D01*
X130915498Y-60257747D01*
X131044423Y-60147634D01*
X131143361Y-60009947D01*
X131151237Y-59990356D01*
X131203766Y-59859687D01*
X131203767Y-59859685D01*
X131206601Y-59852634D01*
X131230490Y-59684778D01*
X131230645Y-59670000D01*
X131210276Y-59501680D01*
X131150345Y-59343077D01*
X131054312Y-59203349D01*
X131048641Y-59198296D01*
X130933392Y-59095612D01*
X130933388Y-59095610D01*
X130927721Y-59090560D01*
X130921011Y-59087007D01*
X130784594Y-59014778D01*
X130784592Y-59014777D01*
X130777881Y-59011224D01*
X130770749Y-59009433D01*
X130714404Y-58966408D01*
X130690228Y-58899654D01*
X130699463Y-58845212D01*
X130699945Y-58844320D01*
X130706495Y-58823160D01*
X130757593Y-58658090D01*
X130757594Y-58658087D01*
X130759415Y-58652203D01*
X130760899Y-58638089D01*
X130779793Y-58458322D01*
X130779793Y-58458321D01*
X130780437Y-58452194D01*
X130770605Y-58344160D01*
X130762769Y-58258050D01*
X130762768Y-58258047D01*
X130762210Y-58251911D01*
X130760424Y-58245840D01*
X132070711Y-58245840D01*
X132071068Y-58252656D01*
X132071068Y-58252661D01*
X132075864Y-58344160D01*
X132080667Y-58435801D01*
X132131181Y-58619193D01*
X132219898Y-58787460D01*
X132342678Y-58932751D01*
X132348102Y-58936898D01*
X132348103Y-58936899D01*
X132488372Y-59044143D01*
X132488376Y-59044146D01*
X132493793Y-59048287D01*
X132666193Y-59128678D01*
X132748721Y-59147125D01*
X132846790Y-59169047D01*
X132846796Y-59169048D01*
X132851834Y-59170174D01*
X132857665Y-59170500D01*
X133647517Y-59170500D01*
X133652700Y-59169937D01*
X133689161Y-59165976D01*
X133789109Y-59155118D01*
X133969396Y-59094445D01*
X134132447Y-58996474D01*
X134270658Y-58865775D01*
X134294279Y-58831018D01*
X134373744Y-58714088D01*
X134373745Y-58714086D01*
X134377578Y-58708446D01*
X134408175Y-58631950D01*
X134445685Y-58538168D01*
X134445686Y-58538166D01*
X134448221Y-58531827D01*
X134479289Y-58344160D01*
X134478653Y-58332013D01*
X134469690Y-58161012D01*
X134469333Y-58154199D01*
X134418819Y-57970807D01*
X134330102Y-57802540D01*
X134207322Y-57657249D01*
X134147515Y-57611523D01*
X134061628Y-57545857D01*
X134061624Y-57545854D01*
X134056207Y-57541713D01*
X133883807Y-57461322D01*
X133783578Y-57438918D01*
X133703210Y-57420953D01*
X133703204Y-57420952D01*
X133698166Y-57419826D01*
X133692335Y-57419500D01*
X132902483Y-57419500D01*
X132760891Y-57434882D01*
X132580604Y-57495555D01*
X132417553Y-57593526D01*
X132279342Y-57724225D01*
X132275507Y-57729868D01*
X132226120Y-57802540D01*
X132172422Y-57881554D01*
X132169890Y-57887883D01*
X132169889Y-57887886D01*
X132136723Y-57970807D01*
X132101779Y-58058173D01*
X132100664Y-58064911D01*
X132072043Y-58237797D01*
X132070711Y-58245840D01*
X130760424Y-58245840D01*
X130707167Y-58064891D01*
X130705428Y-58058982D01*
X130612254Y-57880757D01*
X130486237Y-57724024D01*
X130332177Y-57594752D01*
X130326785Y-57591788D01*
X130326781Y-57591785D01*
X130161337Y-57500832D01*
X130161338Y-57500832D01*
X130155942Y-57497866D01*
X130150075Y-57496005D01*
X130150073Y-57496004D01*
X129970115Y-57438918D01*
X129970114Y-57438918D01*
X129964245Y-57437056D01*
X129807732Y-57419500D01*
X129149394Y-57419500D01*
X128999849Y-57434163D01*
X128807321Y-57492290D01*
X128801880Y-57495183D01*
X128635197Y-57583810D01*
X128635195Y-57583811D01*
X128629751Y-57586706D01*
X128592809Y-57616835D01*
X128478676Y-57709919D01*
X128478673Y-57709922D01*
X128473901Y-57713814D01*
X128469974Y-57718561D01*
X128469972Y-57718563D01*
X128349637Y-57864023D01*
X128349635Y-57864026D01*
X128345708Y-57868773D01*
X128250055Y-58045680D01*
X128190585Y-58237797D01*
X128189941Y-58243922D01*
X128189941Y-58243923D01*
X128170490Y-58428988D01*
X128169563Y-58437806D01*
X96379504Y-58437806D01*
X96413667Y-58325007D01*
X96424503Y-58150338D01*
X96409788Y-58064698D01*
X96396106Y-57985075D01*
X96396105Y-57985073D01*
X96394866Y-57977860D01*
X96326346Y-57816827D01*
X96222617Y-57675876D01*
X96217039Y-57671137D01*
X96217036Y-57671134D01*
X96094824Y-57567307D01*
X96094820Y-57567304D01*
X96089245Y-57562568D01*
X96005062Y-57519582D01*
X95939900Y-57486308D01*
X95939898Y-57486307D01*
X95933384Y-57482981D01*
X95926279Y-57481242D01*
X95926275Y-57481241D01*
X95832741Y-57458354D01*
X95763394Y-57441385D01*
X95757794Y-57441038D01*
X95757790Y-57441037D01*
X95754291Y-57440820D01*
X95754282Y-57440820D01*
X95752352Y-57440700D01*
X95626178Y-57440700D01*
X95534631Y-57451373D01*
X95503444Y-57455009D01*
X95503442Y-57455009D01*
X95496172Y-57455857D01*
X95489295Y-57458353D01*
X95489292Y-57458354D01*
X95338548Y-57513072D01*
X95331669Y-57515569D01*
X95185315Y-57611523D01*
X95064960Y-57738572D01*
X94977061Y-57889902D01*
X94926333Y-58057393D01*
X94915497Y-58232062D01*
X93800500Y-58232062D01*
X93800500Y-55232062D01*
X94915497Y-55232062D01*
X94916737Y-55239278D01*
X94916737Y-55239280D01*
X94943894Y-55397325D01*
X94945134Y-55404540D01*
X95013654Y-55565573D01*
X95117383Y-55706524D01*
X95122961Y-55711263D01*
X95122964Y-55711266D01*
X95245176Y-55815093D01*
X95245180Y-55815096D01*
X95250755Y-55819832D01*
X95331572Y-55861099D01*
X95347687Y-55869328D01*
X95406616Y-55899419D01*
X95413721Y-55901158D01*
X95413725Y-55901159D01*
X95494858Y-55921011D01*
X95576606Y-55941015D01*
X95582206Y-55941362D01*
X95582210Y-55941363D01*
X95585709Y-55941580D01*
X95585718Y-55941580D01*
X95587648Y-55941700D01*
X95713822Y-55941700D01*
X95805369Y-55931027D01*
X95836556Y-55927391D01*
X95836558Y-55927391D01*
X95843828Y-55926543D01*
X95850705Y-55924047D01*
X95850708Y-55924046D01*
X96001452Y-55869328D01*
X96008331Y-55866831D01*
X96154685Y-55770877D01*
X96275040Y-55643828D01*
X96362939Y-55492498D01*
X96413667Y-55325007D01*
X96424503Y-55150338D01*
X96409788Y-55064698D01*
X96396106Y-54985075D01*
X96396105Y-54985073D01*
X96394866Y-54977860D01*
X96326346Y-54816827D01*
X96222617Y-54675876D01*
X96217039Y-54671137D01*
X96217036Y-54671134D01*
X96094824Y-54567307D01*
X96094820Y-54567304D01*
X96089245Y-54562568D01*
X96005062Y-54519582D01*
X95939900Y-54486308D01*
X95939898Y-54486307D01*
X95933384Y-54482981D01*
X95926279Y-54481242D01*
X95926275Y-54481241D01*
X95832741Y-54458354D01*
X95763394Y-54441385D01*
X95757794Y-54441038D01*
X95757790Y-54441037D01*
X95754291Y-54440820D01*
X95754282Y-54440820D01*
X95752352Y-54440700D01*
X95626178Y-54440700D01*
X95534631Y-54451373D01*
X95503444Y-54455009D01*
X95503442Y-54455009D01*
X95496172Y-54455857D01*
X95489295Y-54458353D01*
X95489292Y-54458354D01*
X95412281Y-54486308D01*
X95331669Y-54515569D01*
X95185315Y-54611523D01*
X95064960Y-54738572D01*
X94977061Y-54889902D01*
X94926333Y-55057393D01*
X94915497Y-55232062D01*
X93800500Y-55232062D01*
X93800500Y-48037317D01*
X93802414Y-48015437D01*
X93803222Y-48010855D01*
X93805136Y-48000000D01*
X93803222Y-47989146D01*
X93803222Y-47980247D01*
X93802314Y-47965392D01*
X93803970Y-47933789D01*
X95595996Y-47933789D01*
X95596196Y-47939118D01*
X95596196Y-47939119D01*
X95597721Y-47979732D01*
X95604913Y-48171295D01*
X95653719Y-48403904D01*
X95655677Y-48408863D01*
X95655678Y-48408865D01*
X95719161Y-48569612D01*
X95741020Y-48624963D01*
X95864319Y-48828153D01*
X96020090Y-49007664D01*
X96024216Y-49011047D01*
X96024220Y-49011051D01*
X96122614Y-49091728D01*
X96203880Y-49158362D01*
X96208516Y-49161001D01*
X96208519Y-49161003D01*
X96309561Y-49218519D01*
X96410433Y-49275939D01*
X96633844Y-49357034D01*
X96639092Y-49357983D01*
X96863641Y-49398588D01*
X96863648Y-49398589D01*
X96867725Y-49399326D01*
X96885991Y-49400187D01*
X96891131Y-49400430D01*
X96891138Y-49400430D01*
X96892619Y-49400500D01*
X97059680Y-49400500D01*
X97142026Y-49393513D01*
X97231512Y-49385920D01*
X97231516Y-49385919D01*
X97236823Y-49385469D01*
X97241978Y-49384131D01*
X97241984Y-49384130D01*
X97461703Y-49327102D01*
X97461702Y-49327102D01*
X97466874Y-49325760D01*
X97583327Y-49273302D01*
X97678715Y-49230333D01*
X97678718Y-49230332D01*
X97683576Y-49228143D01*
X97880732Y-49095409D01*
X98052705Y-48931355D01*
X98194579Y-48740670D01*
X98302295Y-48528807D01*
X98304875Y-48520500D01*
X98371193Y-48306919D01*
X98372775Y-48301824D01*
X98386772Y-48196219D01*
X98403304Y-48071494D01*
X98403304Y-48071491D01*
X98404004Y-48066211D01*
X98401503Y-47999583D01*
X98395287Y-47834036D01*
X98395087Y-47828705D01*
X98346281Y-47596096D01*
X98310906Y-47506522D01*
X103412319Y-47506522D01*
X103464746Y-47702181D01*
X103468492Y-47712473D01*
X103563674Y-47916591D01*
X103569157Y-47926087D01*
X103698331Y-48110567D01*
X103705387Y-48118975D01*
X103864625Y-48278213D01*
X103873033Y-48285269D01*
X104057513Y-48414443D01*
X104067008Y-48419926D01*
X104271127Y-48515108D01*
X104281419Y-48518854D01*
X104472103Y-48569948D01*
X104486199Y-48569612D01*
X104489600Y-48561670D01*
X104489600Y-48556521D01*
X104989600Y-48556521D01*
X104993573Y-48570052D01*
X105002122Y-48571281D01*
X105197781Y-48518854D01*
X105208073Y-48515108D01*
X105412192Y-48419926D01*
X105421687Y-48414443D01*
X105606167Y-48285269D01*
X105614575Y-48278213D01*
X105773813Y-48118975D01*
X105780869Y-48110567D01*
X105910043Y-47926087D01*
X105915526Y-47916591D01*
X106005433Y-47723786D01*
X106052351Y-47670501D01*
X106120628Y-47651040D01*
X106188588Y-47671582D01*
X106234053Y-47724284D01*
X106278969Y-47821714D01*
X106401005Y-47994391D01*
X106405139Y-47998418D01*
X106545327Y-48134983D01*
X106552465Y-48141937D01*
X106557261Y-48145142D01*
X106557264Y-48145144D01*
X106700536Y-48240875D01*
X106728277Y-48259411D01*
X106733585Y-48261692D01*
X106733586Y-48261692D01*
X106917250Y-48340600D01*
X106917253Y-48340601D01*
X106922553Y-48342878D01*
X106928182Y-48344152D01*
X106928183Y-48344152D01*
X107123150Y-48388269D01*
X107123153Y-48388269D01*
X107128786Y-48389544D01*
X107134557Y-48389771D01*
X107134559Y-48389771D01*
X107196589Y-48392208D01*
X107340070Y-48397846D01*
X107345779Y-48397018D01*
X107345783Y-48397018D01*
X107543615Y-48368333D01*
X107543619Y-48368332D01*
X107549330Y-48367504D01*
X107636179Y-48338023D01*
X107744083Y-48301395D01*
X107744088Y-48301393D01*
X107749555Y-48299537D01*
X107754598Y-48296713D01*
X107928995Y-48199046D01*
X107928999Y-48199043D01*
X107934042Y-48196219D01*
X108096612Y-48061012D01*
X108231819Y-47898442D01*
X108234643Y-47893399D01*
X108234646Y-47893395D01*
X108332313Y-47718998D01*
X108332314Y-47718996D01*
X108335137Y-47713955D01*
X108336993Y-47708488D01*
X108336995Y-47708483D01*
X108401247Y-47519200D01*
X108403104Y-47513730D01*
X108405548Y-47496876D01*
X108424690Y-47364860D01*
X108454260Y-47300315D01*
X108514032Y-47262003D01*
X108585029Y-47262087D01*
X108644709Y-47300542D01*
X108674125Y-47365158D01*
X108675115Y-47374695D01*
X108678396Y-47424749D01*
X108679817Y-47430345D01*
X108679818Y-47430350D01*
X108729024Y-47624095D01*
X108730445Y-47629690D01*
X108818969Y-47821714D01*
X108941005Y-47994391D01*
X108945139Y-47998418D01*
X109085327Y-48134983D01*
X109092465Y-48141937D01*
X109097261Y-48145142D01*
X109097264Y-48145144D01*
X109240536Y-48240875D01*
X109268277Y-48259411D01*
X109273585Y-48261692D01*
X109273586Y-48261692D01*
X109457250Y-48340600D01*
X109457253Y-48340601D01*
X109462553Y-48342878D01*
X109468182Y-48344152D01*
X109468183Y-48344152D01*
X109663150Y-48388269D01*
X109663153Y-48388269D01*
X109668786Y-48389544D01*
X109674557Y-48389771D01*
X109674559Y-48389771D01*
X109736589Y-48392208D01*
X109880070Y-48397846D01*
X109885779Y-48397018D01*
X109885783Y-48397018D01*
X110083615Y-48368333D01*
X110083619Y-48368332D01*
X110089330Y-48367504D01*
X110176179Y-48338023D01*
X110284083Y-48301395D01*
X110284088Y-48301393D01*
X110289555Y-48299537D01*
X110294598Y-48296713D01*
X110468995Y-48199046D01*
X110468999Y-48199043D01*
X110474042Y-48196219D01*
X110636612Y-48061012D01*
X110771819Y-47898442D01*
X110774643Y-47893399D01*
X110774646Y-47893395D01*
X110872313Y-47718998D01*
X110872314Y-47718996D01*
X110875137Y-47713955D01*
X110876993Y-47708488D01*
X110876995Y-47708483D01*
X110941247Y-47519200D01*
X110943104Y-47513730D01*
X110945548Y-47496876D01*
X110958404Y-47408211D01*
X110987974Y-47343665D01*
X111047746Y-47305353D01*
X111118743Y-47305437D01*
X111178423Y-47343892D01*
X111207839Y-47408508D01*
X111209100Y-47426291D01*
X111209100Y-48138646D01*
X111212218Y-48164846D01*
X111257661Y-48267153D01*
X111265894Y-48275372D01*
X111265895Y-48275373D01*
X111291963Y-48301395D01*
X111336887Y-48346241D01*
X111347524Y-48350944D01*
X111347526Y-48350945D01*
X111384982Y-48367504D01*
X111439273Y-48391506D01*
X111464954Y-48394500D01*
X111783100Y-48394500D01*
X111851221Y-48414502D01*
X111897714Y-48468158D01*
X111909100Y-48520500D01*
X111909100Y-50215606D01*
X111889098Y-50283727D01*
X111872195Y-50304701D01*
X109726689Y-52450208D01*
X109664377Y-52484233D01*
X109636936Y-52487111D01*
X109545295Y-52486631D01*
X109537908Y-52488405D01*
X109537904Y-52488405D01*
X109394562Y-52522820D01*
X109380432Y-52526212D01*
X109373688Y-52529693D01*
X109373685Y-52529694D01*
X109236517Y-52600492D01*
X109229769Y-52603975D01*
X109102004Y-52715431D01*
X109004513Y-52854147D01*
X108942924Y-53012113D01*
X108941932Y-53019646D01*
X108941932Y-53019647D01*
X108927871Y-53126457D01*
X108920794Y-53180211D01*
X108939399Y-53348735D01*
X108997666Y-53507956D01*
X109001902Y-53514259D01*
X109001902Y-53514260D01*
X109014974Y-53533713D01*
X109092230Y-53648683D01*
X109097842Y-53653790D01*
X109097845Y-53653793D01*
X109212012Y-53757677D01*
X109212016Y-53757680D01*
X109217633Y-53762791D01*
X109224306Y-53766414D01*
X109224310Y-53766417D01*
X109359958Y-53840067D01*
X109359960Y-53840068D01*
X109366635Y-53843692D01*
X109373984Y-53845620D01*
X109523283Y-53884788D01*
X109523285Y-53884788D01*
X109530633Y-53886716D01*
X109617009Y-53888073D01*
X109692561Y-53889260D01*
X109692564Y-53889260D01*
X109700160Y-53889379D01*
X109707565Y-53887683D01*
X109707566Y-53887683D01*
X109767986Y-53873845D01*
X109865429Y-53851528D01*
X110016898Y-53775347D01*
X110145823Y-53665234D01*
X110244761Y-53527547D01*
X110252637Y-53507956D01*
X110305166Y-53377287D01*
X110305167Y-53377285D01*
X110308001Y-53370234D01*
X110331890Y-53202378D01*
X110332045Y-53187600D01*
X110331548Y-53183494D01*
X110331322Y-53179389D01*
X110333400Y-53179275D01*
X110343595Y-53117487D01*
X110368004Y-53083099D01*
X112653955Y-50797149D01*
X112665044Y-50787294D01*
X112666296Y-50786307D01*
X112691710Y-50766272D01*
X112725056Y-50718025D01*
X112727353Y-50714810D01*
X112756641Y-50675157D01*
X112756641Y-50675156D01*
X112762235Y-50667583D01*
X112764629Y-50660766D01*
X112768731Y-50654831D01*
X112786412Y-50598925D01*
X112787660Y-50595185D01*
X112804000Y-50548655D01*
X112804001Y-50548652D01*
X112807120Y-50539769D01*
X112807403Y-50532584D01*
X112807417Y-50532511D01*
X112809580Y-50525670D01*
X112810100Y-50519063D01*
X112810100Y-50466409D01*
X112810197Y-50461462D01*
X112812069Y-50413818D01*
X112812439Y-50404406D01*
X112810554Y-50397297D01*
X112810100Y-50389048D01*
X112810100Y-48520500D01*
X112830102Y-48452379D01*
X112883758Y-48405886D01*
X112936100Y-48394500D01*
X113254246Y-48394500D01*
X113257950Y-48394059D01*
X113257953Y-48394059D01*
X113265346Y-48393179D01*
X113280446Y-48391382D01*
X113382753Y-48345939D01*
X113461841Y-48266713D01*
X113507106Y-48164327D01*
X113510100Y-48138646D01*
X113510100Y-47506522D01*
X116010719Y-47506522D01*
X116063146Y-47702181D01*
X116066892Y-47712473D01*
X116162074Y-47916591D01*
X116167557Y-47926087D01*
X116296731Y-48110567D01*
X116303787Y-48118975D01*
X116463025Y-48278213D01*
X116471433Y-48285269D01*
X116655913Y-48414443D01*
X116665408Y-48419926D01*
X116869527Y-48515108D01*
X116879819Y-48518854D01*
X117070503Y-48569948D01*
X117084599Y-48569612D01*
X117088000Y-48561670D01*
X117088000Y-48556521D01*
X117588000Y-48556521D01*
X117591973Y-48570052D01*
X117600522Y-48571281D01*
X117796181Y-48518854D01*
X117806473Y-48515108D01*
X118010592Y-48419926D01*
X118020087Y-48414443D01*
X118204567Y-48285269D01*
X118212975Y-48278213D01*
X118372213Y-48118975D01*
X118379269Y-48110567D01*
X118508443Y-47926087D01*
X118513926Y-47916591D01*
X118603833Y-47723786D01*
X118650751Y-47670501D01*
X118719028Y-47651040D01*
X118786988Y-47671582D01*
X118832453Y-47724284D01*
X118877369Y-47821714D01*
X118999405Y-47994391D01*
X119003539Y-47998418D01*
X119143727Y-48134983D01*
X119150865Y-48141937D01*
X119155661Y-48145142D01*
X119155664Y-48145144D01*
X119298936Y-48240875D01*
X119326677Y-48259411D01*
X119331985Y-48261692D01*
X119331986Y-48261692D01*
X119515650Y-48340600D01*
X119515653Y-48340601D01*
X119520953Y-48342878D01*
X119526582Y-48344152D01*
X119526583Y-48344152D01*
X119721550Y-48388269D01*
X119721553Y-48388269D01*
X119727186Y-48389544D01*
X119732957Y-48389771D01*
X119732959Y-48389771D01*
X119794989Y-48392208D01*
X119938470Y-48397846D01*
X119944179Y-48397018D01*
X119944183Y-48397018D01*
X120142015Y-48368333D01*
X120142019Y-48368332D01*
X120147730Y-48367504D01*
X120234579Y-48338023D01*
X120342483Y-48301395D01*
X120342488Y-48301393D01*
X120347955Y-48299537D01*
X120352998Y-48296713D01*
X120527395Y-48199046D01*
X120527399Y-48199043D01*
X120532442Y-48196219D01*
X120695012Y-48061012D01*
X120830219Y-47898442D01*
X120833043Y-47893399D01*
X120833046Y-47893395D01*
X120930713Y-47718998D01*
X120930714Y-47718996D01*
X120933537Y-47713955D01*
X120935393Y-47708488D01*
X120935395Y-47708483D01*
X120999647Y-47519200D01*
X121001504Y-47513730D01*
X121003948Y-47496876D01*
X121023090Y-47364860D01*
X121052660Y-47300315D01*
X121112432Y-47262003D01*
X121183429Y-47262087D01*
X121243109Y-47300542D01*
X121272525Y-47365158D01*
X121273515Y-47374695D01*
X121276796Y-47424749D01*
X121278217Y-47430345D01*
X121278218Y-47430350D01*
X121327424Y-47624095D01*
X121328845Y-47629690D01*
X121417369Y-47821714D01*
X121539405Y-47994391D01*
X121543539Y-47998418D01*
X121683727Y-48134983D01*
X121690865Y-48141937D01*
X121695661Y-48145142D01*
X121695664Y-48145144D01*
X121838936Y-48240875D01*
X121866677Y-48259411D01*
X121871985Y-48261692D01*
X121871986Y-48261692D01*
X122055650Y-48340600D01*
X122055653Y-48340601D01*
X122060953Y-48342878D01*
X122066582Y-48344152D01*
X122066583Y-48344152D01*
X122261550Y-48388269D01*
X122261553Y-48388269D01*
X122267186Y-48389544D01*
X122272957Y-48389771D01*
X122272959Y-48389771D01*
X122334989Y-48392208D01*
X122478470Y-48397846D01*
X122484179Y-48397018D01*
X122484183Y-48397018D01*
X122682015Y-48368333D01*
X122682019Y-48368332D01*
X122687730Y-48367504D01*
X122774579Y-48338023D01*
X122882483Y-48301395D01*
X122882488Y-48301393D01*
X122887955Y-48299537D01*
X122892998Y-48296713D01*
X123067395Y-48199046D01*
X123067399Y-48199043D01*
X123072442Y-48196219D01*
X123235012Y-48061012D01*
X123370219Y-47898442D01*
X123373043Y-47893399D01*
X123373046Y-47893395D01*
X123470713Y-47718998D01*
X123470714Y-47718996D01*
X123473537Y-47713955D01*
X123475393Y-47708488D01*
X123475395Y-47708483D01*
X123539647Y-47519200D01*
X123541504Y-47513730D01*
X123543948Y-47496876D01*
X123556804Y-47408211D01*
X123586374Y-47343665D01*
X123646146Y-47305353D01*
X123717143Y-47305437D01*
X123776823Y-47343892D01*
X123806239Y-47408508D01*
X123807500Y-47426291D01*
X123807500Y-48138646D01*
X123810618Y-48164846D01*
X123856061Y-48267153D01*
X123864294Y-48275372D01*
X123864295Y-48275373D01*
X123890363Y-48301395D01*
X123935287Y-48346241D01*
X123945924Y-48350944D01*
X123945926Y-48350945D01*
X123983382Y-48367504D01*
X124037673Y-48391506D01*
X124063354Y-48394500D01*
X125852646Y-48394500D01*
X125856350Y-48394059D01*
X125856353Y-48394059D01*
X125863746Y-48393179D01*
X125878846Y-48391382D01*
X125981153Y-48345939D01*
X126060241Y-48266713D01*
X126105506Y-48164327D01*
X126108500Y-48138646D01*
X126108500Y-47933789D01*
X130595996Y-47933789D01*
X130596196Y-47939118D01*
X130596196Y-47939119D01*
X130597721Y-47979732D01*
X130604913Y-48171295D01*
X130653719Y-48403904D01*
X130655677Y-48408863D01*
X130655678Y-48408865D01*
X130719161Y-48569612D01*
X130741020Y-48624963D01*
X130864319Y-48828153D01*
X131020090Y-49007664D01*
X131024216Y-49011047D01*
X131024220Y-49011051D01*
X131122614Y-49091728D01*
X131203880Y-49158362D01*
X131208516Y-49161001D01*
X131208519Y-49161003D01*
X131309561Y-49218519D01*
X131410433Y-49275939D01*
X131633844Y-49357034D01*
X131639092Y-49357983D01*
X131863641Y-49398588D01*
X131863648Y-49398589D01*
X131867725Y-49399326D01*
X131885991Y-49400187D01*
X131891131Y-49400430D01*
X131891138Y-49400430D01*
X131892619Y-49400500D01*
X132059680Y-49400500D01*
X132142026Y-49393513D01*
X132231512Y-49385920D01*
X132231516Y-49385919D01*
X132236823Y-49385469D01*
X132241978Y-49384131D01*
X132241984Y-49384130D01*
X132461703Y-49327102D01*
X132461702Y-49327102D01*
X132466874Y-49325760D01*
X132583327Y-49273302D01*
X132678715Y-49230333D01*
X132678718Y-49230332D01*
X132683576Y-49228143D01*
X132880732Y-49095409D01*
X133052705Y-48931355D01*
X133194579Y-48740670D01*
X133302295Y-48528807D01*
X133304875Y-48520500D01*
X133371193Y-48306919D01*
X133372775Y-48301824D01*
X133386772Y-48196219D01*
X133403304Y-48071494D01*
X133403304Y-48071491D01*
X133404004Y-48066211D01*
X133401503Y-47999583D01*
X133395287Y-47834036D01*
X133395087Y-47828705D01*
X133346281Y-47596096D01*
X133296954Y-47471193D01*
X133260941Y-47380002D01*
X133260940Y-47380000D01*
X133258980Y-47375037D01*
X133252986Y-47365158D01*
X133138448Y-47176407D01*
X133135681Y-47171847D01*
X133042935Y-47064966D01*
X132983410Y-46996369D01*
X132983408Y-46996367D01*
X132979910Y-46992336D01*
X132975784Y-46988953D01*
X132975780Y-46988949D01*
X132800248Y-46845023D01*
X132796120Y-46841638D01*
X132791484Y-46838999D01*
X132791481Y-46838997D01*
X132656443Y-46762129D01*
X132589567Y-46724061D01*
X132366156Y-46642966D01*
X132360908Y-46642017D01*
X132136359Y-46601412D01*
X132136352Y-46601411D01*
X132132275Y-46600674D01*
X132114009Y-46599813D01*
X132108869Y-46599570D01*
X132108862Y-46599570D01*
X132107381Y-46599500D01*
X131940320Y-46599500D01*
X131857974Y-46606487D01*
X131768488Y-46614080D01*
X131768484Y-46614081D01*
X131763177Y-46614531D01*
X131758022Y-46615869D01*
X131758016Y-46615870D01*
X131578444Y-46662478D01*
X131533126Y-46674240D01*
X131491998Y-46692767D01*
X131321285Y-46769667D01*
X131321282Y-46769668D01*
X131316424Y-46771857D01*
X131119268Y-46904591D01*
X130947295Y-47068645D01*
X130805421Y-47259330D01*
X130697705Y-47471193D01*
X130696124Y-47476284D01*
X130696123Y-47476287D01*
X130628807Y-47693081D01*
X130627225Y-47698176D01*
X130595996Y-47933789D01*
X126108500Y-47933789D01*
X126108500Y-46349354D01*
X126105382Y-46323154D01*
X126059939Y-46220847D01*
X126051444Y-46212366D01*
X125988945Y-46149977D01*
X125980713Y-46141759D01*
X125970076Y-46137056D01*
X125970074Y-46137055D01*
X125910538Y-46110735D01*
X125878327Y-46096494D01*
X125852646Y-46093500D01*
X124063354Y-46093500D01*
X124059650Y-46093941D01*
X124059647Y-46093941D01*
X124052254Y-46094821D01*
X124037154Y-46096618D01*
X124028514Y-46100456D01*
X124028513Y-46100456D01*
X123962131Y-46129942D01*
X123934847Y-46142061D01*
X123855759Y-46221287D01*
X123810494Y-46323673D01*
X123807500Y-46349354D01*
X123807500Y-47043111D01*
X123787498Y-47111232D01*
X123733842Y-47157725D01*
X123663568Y-47167829D01*
X123598988Y-47138335D01*
X123560604Y-47078609D01*
X123556029Y-47054640D01*
X123554610Y-47039197D01*
X123554081Y-47033440D01*
X123496686Y-46829931D01*
X123491059Y-46818519D01*
X123405719Y-46645469D01*
X123403165Y-46640290D01*
X123276651Y-46470867D01*
X123149236Y-46353086D01*
X123125622Y-46331257D01*
X123125620Y-46331255D01*
X123121381Y-46327337D01*
X123088014Y-46306284D01*
X122947434Y-46217584D01*
X122947433Y-46217584D01*
X122942554Y-46214505D01*
X122746160Y-46136152D01*
X122740503Y-46135027D01*
X122740497Y-46135025D01*
X122544442Y-46096028D01*
X122544440Y-46096028D01*
X122538775Y-46094901D01*
X122533000Y-46094825D01*
X122532996Y-46094825D01*
X122426976Y-46093437D01*
X122327346Y-46092133D01*
X122321649Y-46093112D01*
X122321648Y-46093112D01*
X122124650Y-46126962D01*
X122124649Y-46126962D01*
X122118953Y-46127941D01*
X121920575Y-46201127D01*
X121915614Y-46204079D01*
X121915613Y-46204079D01*
X121869553Y-46231482D01*
X121738856Y-46309238D01*
X121579881Y-46448655D01*
X121448976Y-46614708D01*
X121446287Y-46619819D01*
X121446285Y-46619822D01*
X121416500Y-46676434D01*
X121350523Y-46801836D01*
X121287820Y-47003773D01*
X121287141Y-47009510D01*
X121273088Y-47128239D01*
X121245217Y-47193537D01*
X121186469Y-47233401D01*
X121115494Y-47235174D01*
X121054828Y-47198295D01*
X121023730Y-47134471D01*
X121022490Y-47124958D01*
X121018232Y-47078609D01*
X121014081Y-47033440D01*
X120956686Y-46829931D01*
X120951059Y-46818519D01*
X120865719Y-46645469D01*
X120863165Y-46640290D01*
X120736651Y-46470867D01*
X120609236Y-46353086D01*
X120585622Y-46331257D01*
X120585620Y-46331255D01*
X120581381Y-46327337D01*
X120548014Y-46306284D01*
X120407434Y-46217584D01*
X120407433Y-46217584D01*
X120402554Y-46214505D01*
X120206160Y-46136152D01*
X120200503Y-46135027D01*
X120200497Y-46135025D01*
X120004442Y-46096028D01*
X120004440Y-46096028D01*
X119998775Y-46094901D01*
X119993000Y-46094825D01*
X119992996Y-46094825D01*
X119886976Y-46093437D01*
X119787346Y-46092133D01*
X119781649Y-46093112D01*
X119781648Y-46093112D01*
X119584650Y-46126962D01*
X119584649Y-46126962D01*
X119578953Y-46127941D01*
X119380575Y-46201127D01*
X119375614Y-46204079D01*
X119375613Y-46204079D01*
X119329553Y-46231482D01*
X119198856Y-46309238D01*
X119039881Y-46448655D01*
X118908976Y-46614708D01*
X118906287Y-46619819D01*
X118906285Y-46619822D01*
X118828563Y-46767547D01*
X118779144Y-46818519D01*
X118710011Y-46834682D01*
X118643115Y-46810903D01*
X118602860Y-46762129D01*
X118513926Y-46571409D01*
X118508443Y-46561913D01*
X118379269Y-46377433D01*
X118372213Y-46369025D01*
X118212975Y-46209787D01*
X118204567Y-46202731D01*
X118020087Y-46073557D01*
X118010592Y-46068074D01*
X117806473Y-45972892D01*
X117796181Y-45969146D01*
X117605497Y-45918052D01*
X117591401Y-45918388D01*
X117588000Y-45926330D01*
X117588000Y-48556521D01*
X117088000Y-48556521D01*
X117088000Y-47512115D01*
X117083525Y-47496876D01*
X117082135Y-47495671D01*
X117074452Y-47494000D01*
X116025479Y-47494000D01*
X116011948Y-47497973D01*
X116010719Y-47506522D01*
X113510100Y-47506522D01*
X113510100Y-46976503D01*
X116012052Y-46976503D01*
X116012388Y-46990599D01*
X116020330Y-46994000D01*
X117069885Y-46994000D01*
X117085124Y-46989525D01*
X117086329Y-46988135D01*
X117088000Y-46980452D01*
X117088000Y-45931479D01*
X117084027Y-45917948D01*
X117075478Y-45916719D01*
X116879819Y-45969146D01*
X116869527Y-45972892D01*
X116665409Y-46068074D01*
X116655913Y-46073557D01*
X116471433Y-46202731D01*
X116463025Y-46209787D01*
X116303787Y-46369025D01*
X116296731Y-46377433D01*
X116167557Y-46561913D01*
X116162074Y-46571409D01*
X116066892Y-46775527D01*
X116063146Y-46785819D01*
X116012052Y-46976503D01*
X113510100Y-46976503D01*
X113510100Y-46349354D01*
X113506982Y-46323154D01*
X113461539Y-46220847D01*
X113453044Y-46212366D01*
X113390545Y-46149977D01*
X113382313Y-46141759D01*
X113371676Y-46137056D01*
X113371674Y-46137055D01*
X113312138Y-46110735D01*
X113279927Y-46096494D01*
X113254246Y-46093500D01*
X111464954Y-46093500D01*
X111461250Y-46093941D01*
X111461247Y-46093941D01*
X111453854Y-46094821D01*
X111438754Y-46096618D01*
X111430114Y-46100456D01*
X111430113Y-46100456D01*
X111363731Y-46129942D01*
X111336447Y-46142061D01*
X111257359Y-46221287D01*
X111212094Y-46323673D01*
X111209100Y-46349354D01*
X111209100Y-47043111D01*
X111189098Y-47111232D01*
X111135442Y-47157725D01*
X111065168Y-47167829D01*
X111000588Y-47138335D01*
X110962204Y-47078609D01*
X110957629Y-47054640D01*
X110956210Y-47039197D01*
X110955681Y-47033440D01*
X110898286Y-46829931D01*
X110892659Y-46818519D01*
X110807319Y-46645469D01*
X110804765Y-46640290D01*
X110678251Y-46470867D01*
X110550836Y-46353086D01*
X110527222Y-46331257D01*
X110527220Y-46331255D01*
X110522981Y-46327337D01*
X110489614Y-46306284D01*
X110349034Y-46217584D01*
X110349033Y-46217584D01*
X110344154Y-46214505D01*
X110147760Y-46136152D01*
X110142103Y-46135027D01*
X110142097Y-46135025D01*
X109946042Y-46096028D01*
X109946040Y-46096028D01*
X109940375Y-46094901D01*
X109934600Y-46094825D01*
X109934596Y-46094825D01*
X109828576Y-46093437D01*
X109728946Y-46092133D01*
X109723249Y-46093112D01*
X109723248Y-46093112D01*
X109526250Y-46126962D01*
X109526249Y-46126962D01*
X109520553Y-46127941D01*
X109322175Y-46201127D01*
X109317214Y-46204079D01*
X109317213Y-46204079D01*
X109271153Y-46231482D01*
X109140456Y-46309238D01*
X108981481Y-46448655D01*
X108850576Y-46614708D01*
X108847887Y-46619819D01*
X108847885Y-46619822D01*
X108818100Y-46676434D01*
X108752123Y-46801836D01*
X108689420Y-47003773D01*
X108688741Y-47009510D01*
X108674688Y-47128239D01*
X108646817Y-47193537D01*
X108588069Y-47233401D01*
X108517094Y-47235174D01*
X108456428Y-47198295D01*
X108425330Y-47134471D01*
X108424090Y-47124958D01*
X108419832Y-47078609D01*
X108415681Y-47033440D01*
X108358286Y-46829931D01*
X108352659Y-46818519D01*
X108267319Y-46645469D01*
X108264765Y-46640290D01*
X108138251Y-46470867D01*
X108010836Y-46353086D01*
X107987222Y-46331257D01*
X107987220Y-46331255D01*
X107982981Y-46327337D01*
X107949614Y-46306284D01*
X107809034Y-46217584D01*
X107809033Y-46217584D01*
X107804154Y-46214505D01*
X107607760Y-46136152D01*
X107602103Y-46135027D01*
X107602097Y-46135025D01*
X107406042Y-46096028D01*
X107406040Y-46096028D01*
X107400375Y-46094901D01*
X107394600Y-46094825D01*
X107394596Y-46094825D01*
X107288576Y-46093437D01*
X107188946Y-46092133D01*
X107183249Y-46093112D01*
X107183248Y-46093112D01*
X106986250Y-46126962D01*
X106986249Y-46126962D01*
X106980553Y-46127941D01*
X106782175Y-46201127D01*
X106777214Y-46204079D01*
X106777213Y-46204079D01*
X106731153Y-46231482D01*
X106600456Y-46309238D01*
X106441481Y-46448655D01*
X106310576Y-46614708D01*
X106307887Y-46619819D01*
X106307885Y-46619822D01*
X106230163Y-46767547D01*
X106180744Y-46818519D01*
X106111611Y-46834682D01*
X106044715Y-46810903D01*
X106004460Y-46762129D01*
X105915526Y-46571409D01*
X105910043Y-46561913D01*
X105780869Y-46377433D01*
X105773813Y-46369025D01*
X105614575Y-46209787D01*
X105606167Y-46202731D01*
X105421687Y-46073557D01*
X105412192Y-46068074D01*
X105208073Y-45972892D01*
X105197781Y-45969146D01*
X105007097Y-45918052D01*
X104993001Y-45918388D01*
X104989600Y-45926330D01*
X104989600Y-48556521D01*
X104489600Y-48556521D01*
X104489600Y-47512115D01*
X104485125Y-47496876D01*
X104483735Y-47495671D01*
X104476052Y-47494000D01*
X103427079Y-47494000D01*
X103413548Y-47497973D01*
X103412319Y-47506522D01*
X98310906Y-47506522D01*
X98296954Y-47471193D01*
X98260941Y-47380002D01*
X98260940Y-47380000D01*
X98258980Y-47375037D01*
X98252986Y-47365158D01*
X98138448Y-47176407D01*
X98135681Y-47171847D01*
X98042935Y-47064966D01*
X97983410Y-46996369D01*
X97983408Y-46996367D01*
X97979910Y-46992336D01*
X97975784Y-46988953D01*
X97975780Y-46988949D01*
X97960601Y-46976503D01*
X103413652Y-46976503D01*
X103413988Y-46990599D01*
X103421930Y-46994000D01*
X104471485Y-46994000D01*
X104486724Y-46989525D01*
X104487929Y-46988135D01*
X104489600Y-46980452D01*
X104489600Y-45931479D01*
X104485627Y-45917948D01*
X104477078Y-45916719D01*
X104281419Y-45969146D01*
X104271127Y-45972892D01*
X104067009Y-46068074D01*
X104057513Y-46073557D01*
X103873033Y-46202731D01*
X103864625Y-46209787D01*
X103705387Y-46369025D01*
X103698331Y-46377433D01*
X103569157Y-46561913D01*
X103563674Y-46571409D01*
X103468492Y-46775527D01*
X103464746Y-46785819D01*
X103413652Y-46976503D01*
X97960601Y-46976503D01*
X97800248Y-46845023D01*
X97796120Y-46841638D01*
X97791484Y-46838999D01*
X97791481Y-46838997D01*
X97656443Y-46762129D01*
X97589567Y-46724061D01*
X97366156Y-46642966D01*
X97360908Y-46642017D01*
X97136359Y-46601412D01*
X97136352Y-46601411D01*
X97132275Y-46600674D01*
X97114009Y-46599813D01*
X97108869Y-46599570D01*
X97108862Y-46599570D01*
X97107381Y-46599500D01*
X96940320Y-46599500D01*
X96857974Y-46606487D01*
X96768488Y-46614080D01*
X96768484Y-46614081D01*
X96763177Y-46614531D01*
X96758022Y-46615869D01*
X96758016Y-46615870D01*
X96578444Y-46662478D01*
X96533126Y-46674240D01*
X96491998Y-46692767D01*
X96321285Y-46769667D01*
X96321282Y-46769668D01*
X96316424Y-46771857D01*
X96119268Y-46904591D01*
X95947295Y-47068645D01*
X95805421Y-47259330D01*
X95697705Y-47471193D01*
X95696124Y-47476284D01*
X95696123Y-47476287D01*
X95628807Y-47693081D01*
X95627225Y-47698176D01*
X95595996Y-47933789D01*
X93803970Y-47933789D01*
X93817681Y-47672162D01*
X93819059Y-47659045D01*
X93869384Y-47341309D01*
X93872126Y-47328409D01*
X93955387Y-47017674D01*
X93959463Y-47005131D01*
X94074743Y-46704816D01*
X94080107Y-46692767D01*
X94226155Y-46406133D01*
X94232749Y-46394712D01*
X94407957Y-46124914D01*
X94415710Y-46114244D01*
X94618153Y-45864248D01*
X94626978Y-45854447D01*
X94854447Y-45626978D01*
X94864248Y-45618153D01*
X95114244Y-45415710D01*
X95124914Y-45407957D01*
X95394712Y-45232749D01*
X95406133Y-45226155D01*
X95692767Y-45080107D01*
X95704816Y-45074743D01*
X96005131Y-44959463D01*
X96017674Y-44955387D01*
X96328409Y-44872126D01*
X96341309Y-44869384D01*
X96659045Y-44819059D01*
X96672161Y-44817681D01*
X96703394Y-44816044D01*
X96965392Y-44802314D01*
X96980247Y-44803222D01*
X96989146Y-44803222D01*
X97000000Y-44805136D01*
X97015437Y-44802414D01*
X97037317Y-44800500D01*
X131962683Y-44800500D01*
X131984563Y-44802414D01*
G37*
%TD.AperFunction*%
%TD*%
M02*
