%TF.GenerationSoftware,KiCad,Pcbnew,(6.0.10)*%
%TF.CreationDate,2023-02-14T22:37:11+03:00*%
%TF.ProjectId,BluePill,426c7565-5069-46c6-9c2e-6b696361645f,rev?*%
%TF.SameCoordinates,Original*%
%TF.FileFunction,Legend,Top*%
%TF.FilePolarity,Positive*%
%FSLAX46Y46*%
G04 Gerber Fmt 4.6, Leading zero omitted, Abs format (unit mm)*
G04 Created by KiCad (PCBNEW (6.0.10)) date 2023-02-14 22:37:11*
%MOMM*%
%LPD*%
G01*
G04 APERTURE LIST*
%ADD10C,0.200000*%
%ADD11C,0.150000*%
%ADD12C,0.120000*%
G04 APERTURE END LIST*
D10*
X94764742Y-76539590D02*
X94764742Y-77015780D01*
X94431409Y-76015780D02*
X94764742Y-76539590D01*
X95098076Y-76015780D01*
X95859980Y-77015780D02*
X95859980Y-76491971D01*
X95812361Y-76396733D01*
X95717123Y-76349114D01*
X95526647Y-76349114D01*
X95431409Y-76396733D01*
X95859980Y-76968161D02*
X95764742Y-77015780D01*
X95526647Y-77015780D01*
X95431409Y-76968161D01*
X95383790Y-76872923D01*
X95383790Y-76777685D01*
X95431409Y-76682447D01*
X95526647Y-76634828D01*
X95764742Y-76634828D01*
X95859980Y-76587209D01*
X96240933Y-76349114D02*
X96479028Y-77015780D01*
X96717123Y-76349114D01*
X97526647Y-76349114D02*
X97526647Y-77015780D01*
X97098076Y-76349114D02*
X97098076Y-76872923D01*
X97145695Y-76968161D01*
X97240933Y-77015780D01*
X97383790Y-77015780D01*
X97479028Y-76968161D01*
X97526647Y-76920542D01*
X97907600Y-76349114D02*
X98431409Y-76349114D01*
X97907600Y-77015780D01*
X98431409Y-77015780D01*
X99526647Y-76968161D02*
X99669504Y-77015780D01*
X99907600Y-77015780D01*
X100002838Y-76968161D01*
X100050457Y-76920542D01*
X100098076Y-76825304D01*
X100098076Y-76730066D01*
X100050457Y-76634828D01*
X100002838Y-76587209D01*
X99907600Y-76539590D01*
X99717123Y-76491971D01*
X99621885Y-76444352D01*
X99574266Y-76396733D01*
X99526647Y-76301495D01*
X99526647Y-76206257D01*
X99574266Y-76111019D01*
X99621885Y-76063400D01*
X99717123Y-76015780D01*
X99955219Y-76015780D01*
X100098076Y-76063400D01*
X100907600Y-76968161D02*
X100812361Y-77015780D01*
X100621885Y-77015780D01*
X100526647Y-76968161D01*
X100479028Y-76872923D01*
X100479028Y-76491971D01*
X100526647Y-76396733D01*
X100621885Y-76349114D01*
X100812361Y-76349114D01*
X100907600Y-76396733D01*
X100955219Y-76491971D01*
X100955219Y-76587209D01*
X100479028Y-76682447D01*
X101526647Y-77015780D02*
X101431409Y-76968161D01*
X101383790Y-76872923D01*
X101383790Y-76015780D01*
X101907600Y-77015780D02*
X101907600Y-76349114D01*
X101907600Y-76015780D02*
X101859980Y-76063400D01*
X101907600Y-76111019D01*
X101955219Y-76063400D01*
X101907600Y-76015780D01*
X101907600Y-76111019D01*
X102383790Y-77015780D02*
X102383790Y-76349114D01*
X102383790Y-76444352D02*
X102431409Y-76396733D01*
X102526647Y-76349114D01*
X102669504Y-76349114D01*
X102764742Y-76396733D01*
X102812361Y-76491971D01*
X102812361Y-77015780D01*
X102812361Y-76491971D02*
X102859980Y-76396733D01*
X102955219Y-76349114D01*
X103098076Y-76349114D01*
X103193314Y-76396733D01*
X103240933Y-76491971D01*
X103240933Y-77015780D01*
X97121885Y-78625780D02*
X97121885Y-77625780D01*
X97693314Y-78625780D02*
X97264742Y-78054352D01*
X97693314Y-77625780D02*
X97121885Y-78197209D01*
X98121885Y-78625780D02*
X98121885Y-77959114D01*
X98502838Y-77959114D02*
X99026647Y-77959114D01*
X98502838Y-78625780D01*
X99026647Y-78625780D01*
X99407600Y-78625780D02*
X99407600Y-77959114D01*
X100026647Y-78625780D02*
X99931409Y-78578161D01*
X99883790Y-78482923D01*
X99883790Y-77625780D01*
X100264742Y-77959114D02*
X100645695Y-77959114D01*
X100407600Y-77625780D02*
X100407600Y-78482923D01*
X100455219Y-78578161D01*
X100550457Y-78625780D01*
X100645695Y-78625780D01*
X101407600Y-78625780D02*
X101407600Y-78101971D01*
X101359980Y-78006733D01*
X101264742Y-77959114D01*
X101074266Y-77959114D01*
X100979028Y-78006733D01*
X101407600Y-78578161D02*
X101312361Y-78625780D01*
X101074266Y-78625780D01*
X100979028Y-78578161D01*
X100931409Y-78482923D01*
X100931409Y-78387685D01*
X100979028Y-78292447D01*
X101074266Y-78244828D01*
X101312361Y-78244828D01*
X101407600Y-78197209D01*
X101836171Y-78578161D02*
X101931409Y-78625780D01*
X102121885Y-78625780D01*
X102217123Y-78578161D01*
X102264742Y-78482923D01*
X102264742Y-78435304D01*
X102217123Y-78340066D01*
X102121885Y-78292447D01*
X101979028Y-78292447D01*
X101883790Y-78244828D01*
X101836171Y-78149590D01*
X101836171Y-78101971D01*
X101883790Y-78006733D01*
X101979028Y-77959114D01*
X102121885Y-77959114D01*
X102217123Y-78006733D01*
X102026647Y-78673400D02*
X102121885Y-78721019D01*
X102169504Y-78816257D01*
X102121885Y-78911495D01*
X102026647Y-78959114D01*
X101883790Y-78959114D01*
D11*
X114579447Y-47467828D02*
X115341352Y-47467828D01*
X101625447Y-47315428D02*
X102387352Y-47315428D01*
D10*
X99263200Y-53318445D02*
X99263200Y-54270826D01*
X99501295Y-54032730D02*
X99263200Y-54270826D01*
X99025104Y-54032730D01*
X99620342Y-56283326D02*
X98906057Y-56283326D01*
X99263200Y-56283326D02*
X99263200Y-55033326D01*
X99144152Y-55211897D01*
X99025104Y-55330945D01*
X98906057Y-55390469D01*
X94569571Y-62343914D02*
X94748142Y-62403438D01*
X94807666Y-62462961D01*
X94867190Y-62582009D01*
X94867190Y-62760580D01*
X94807666Y-62879628D01*
X94748142Y-62939152D01*
X94629095Y-62998676D01*
X94152904Y-62998676D01*
X94152904Y-61748676D01*
X94569571Y-61748676D01*
X94688619Y-61808200D01*
X94748142Y-61867723D01*
X94807666Y-61986771D01*
X94807666Y-62105819D01*
X94748142Y-62224866D01*
X94688619Y-62284390D01*
X94569571Y-62343914D01*
X94152904Y-62343914D01*
X95641000Y-61748676D02*
X95879095Y-61748676D01*
X95998142Y-61808200D01*
X96117190Y-61927247D01*
X96176714Y-62165342D01*
X96176714Y-62582009D01*
X96117190Y-62820104D01*
X95998142Y-62939152D01*
X95879095Y-62998676D01*
X95641000Y-62998676D01*
X95521952Y-62939152D01*
X95402904Y-62820104D01*
X95343380Y-62582009D01*
X95343380Y-62165342D01*
X95402904Y-61927247D01*
X95521952Y-61808200D01*
X95641000Y-61748676D01*
X96950523Y-61748676D02*
X97188619Y-61748676D01*
X97307666Y-61808200D01*
X97426714Y-61927247D01*
X97486238Y-62165342D01*
X97486238Y-62582009D01*
X97426714Y-62820104D01*
X97307666Y-62939152D01*
X97188619Y-62998676D01*
X96950523Y-62998676D01*
X96831476Y-62939152D01*
X96712428Y-62820104D01*
X96652904Y-62582009D01*
X96652904Y-62165342D01*
X96712428Y-61927247D01*
X96831476Y-61808200D01*
X96950523Y-61748676D01*
X97843380Y-61748676D02*
X98557666Y-61748676D01*
X98200523Y-62998676D02*
X98200523Y-61748676D01*
X105561361Y-83521876D02*
X105561361Y-82271876D01*
X106097076Y-82390923D02*
X106156600Y-82331400D01*
X106275647Y-82271876D01*
X106573266Y-82271876D01*
X106692314Y-82331400D01*
X106751838Y-82390923D01*
X106811361Y-82509971D01*
X106811361Y-82629019D01*
X106751838Y-82807590D01*
X106037552Y-83521876D01*
X106811361Y-83521876D01*
X108061361Y-83402828D02*
X108001838Y-83462352D01*
X107823266Y-83521876D01*
X107704219Y-83521876D01*
X107525647Y-83462352D01*
X107406600Y-83343304D01*
X107347076Y-83224257D01*
X107287552Y-82986161D01*
X107287552Y-82807590D01*
X107347076Y-82569495D01*
X107406600Y-82450447D01*
X107525647Y-82331400D01*
X107704219Y-82271876D01*
X107823266Y-82271876D01*
X108001838Y-82331400D01*
X108061361Y-82390923D01*
X105716314Y-49607476D02*
X105716314Y-50619380D01*
X105775838Y-50738428D01*
X105835361Y-50797952D01*
X105954409Y-50857476D01*
X106192504Y-50857476D01*
X106311552Y-50797952D01*
X106371076Y-50738428D01*
X106430600Y-50619380D01*
X106430600Y-49607476D01*
X106966314Y-50797952D02*
X107144885Y-50857476D01*
X107442504Y-50857476D01*
X107561552Y-50797952D01*
X107621076Y-50738428D01*
X107680600Y-50619380D01*
X107680600Y-50500333D01*
X107621076Y-50381285D01*
X107561552Y-50321761D01*
X107442504Y-50262238D01*
X107204409Y-50202714D01*
X107085361Y-50143190D01*
X107025838Y-50083666D01*
X106966314Y-49964619D01*
X106966314Y-49845571D01*
X107025838Y-49726523D01*
X107085361Y-49667000D01*
X107204409Y-49607476D01*
X107502028Y-49607476D01*
X107680600Y-49667000D01*
X108156790Y-50500333D02*
X108752028Y-50500333D01*
X108037742Y-50857476D02*
X108454409Y-49607476D01*
X108871076Y-50857476D01*
X110002028Y-50857476D02*
X109585361Y-50262238D01*
X109287742Y-50857476D02*
X109287742Y-49607476D01*
X109763933Y-49607476D01*
X109882980Y-49667000D01*
X109942504Y-49726523D01*
X110002028Y-49845571D01*
X110002028Y-50024142D01*
X109942504Y-50143190D01*
X109882980Y-50202714D01*
X109763933Y-50262238D01*
X109287742Y-50262238D01*
X110359171Y-49607476D02*
X111073457Y-49607476D01*
X110716314Y-50857476D02*
X110716314Y-49607476D01*
X119359971Y-50797952D02*
X119538542Y-50857476D01*
X119836161Y-50857476D01*
X119955209Y-50797952D01*
X120014733Y-50738428D01*
X120074257Y-50619380D01*
X120074257Y-50500333D01*
X120014733Y-50381285D01*
X119955209Y-50321761D01*
X119836161Y-50262238D01*
X119598066Y-50202714D01*
X119479019Y-50143190D01*
X119419495Y-50083666D01*
X119359971Y-49964619D01*
X119359971Y-49845571D01*
X119419495Y-49726523D01*
X119479019Y-49667000D01*
X119598066Y-49607476D01*
X119895685Y-49607476D01*
X120074257Y-49667000D01*
X120490923Y-49607476D02*
X120788542Y-50857476D01*
X121026638Y-49964619D01*
X121264733Y-50857476D01*
X121562352Y-49607476D01*
X122038542Y-50857476D02*
X122038542Y-49607476D01*
X122336161Y-49607476D01*
X122514733Y-49667000D01*
X122633780Y-49786047D01*
X122693304Y-49905095D01*
X122752828Y-50143190D01*
X122752828Y-50321761D01*
X122693304Y-50559857D01*
X122633780Y-50678904D01*
X122514733Y-50797952D01*
X122336161Y-50857476D01*
X122038542Y-50857476D01*
X130147019Y-55246276D02*
X130147019Y-56258180D01*
X130206542Y-56377228D01*
X130266066Y-56436752D01*
X130385114Y-56496276D01*
X130623209Y-56496276D01*
X130742257Y-56436752D01*
X130801780Y-56377228D01*
X130861304Y-56258180D01*
X130861304Y-55246276D01*
X131397019Y-56436752D02*
X131575590Y-56496276D01*
X131873209Y-56496276D01*
X131992257Y-56436752D01*
X132051780Y-56377228D01*
X132111304Y-56258180D01*
X132111304Y-56139133D01*
X132051780Y-56020085D01*
X131992257Y-55960561D01*
X131873209Y-55901038D01*
X131635114Y-55841514D01*
X131516066Y-55781990D01*
X131456542Y-55722466D01*
X131397019Y-55603419D01*
X131397019Y-55484371D01*
X131456542Y-55365323D01*
X131516066Y-55305800D01*
X131635114Y-55246276D01*
X131932733Y-55246276D01*
X132111304Y-55305800D01*
X133063685Y-55841514D02*
X133242257Y-55901038D01*
X133301780Y-55960561D01*
X133361304Y-56079609D01*
X133361304Y-56258180D01*
X133301780Y-56377228D01*
X133242257Y-56436752D01*
X133123209Y-56496276D01*
X132647019Y-56496276D01*
X132647019Y-55246276D01*
X133063685Y-55246276D01*
X133182733Y-55305800D01*
X133242257Y-55365323D01*
X133301780Y-55484371D01*
X133301780Y-55603419D01*
X133242257Y-55722466D01*
X133182733Y-55781990D01*
X133063685Y-55841514D01*
X132647019Y-55841514D01*
D11*
%TO.C,C5*%
X101382533Y-57303942D02*
X101334914Y-57351561D01*
X101192057Y-57399180D01*
X101096819Y-57399180D01*
X100953961Y-57351561D01*
X100858723Y-57256323D01*
X100811104Y-57161085D01*
X100763485Y-56970609D01*
X100763485Y-56827752D01*
X100811104Y-56637276D01*
X100858723Y-56542038D01*
X100953961Y-56446800D01*
X101096819Y-56399180D01*
X101192057Y-56399180D01*
X101334914Y-56446800D01*
X101382533Y-56494419D01*
X102287295Y-56399180D02*
X101811104Y-56399180D01*
X101763485Y-56875371D01*
X101811104Y-56827752D01*
X101906342Y-56780133D01*
X102144438Y-56780133D01*
X102239676Y-56827752D01*
X102287295Y-56875371D01*
X102334914Y-56970609D01*
X102334914Y-57208704D01*
X102287295Y-57303942D01*
X102239676Y-57351561D01*
X102144438Y-57399180D01*
X101906342Y-57399180D01*
X101811104Y-57351561D01*
X101763485Y-57303942D01*
%TO.C,C1*%
X120813533Y-69445142D02*
X120765914Y-69492761D01*
X120623057Y-69540380D01*
X120527819Y-69540380D01*
X120384961Y-69492761D01*
X120289723Y-69397523D01*
X120242104Y-69302285D01*
X120194485Y-69111809D01*
X120194485Y-68968952D01*
X120242104Y-68778476D01*
X120289723Y-68683238D01*
X120384961Y-68588000D01*
X120527819Y-68540380D01*
X120623057Y-68540380D01*
X120765914Y-68588000D01*
X120813533Y-68635619D01*
X121765914Y-69540380D02*
X121194485Y-69540380D01*
X121480200Y-69540380D02*
X121480200Y-68540380D01*
X121384961Y-68683238D01*
X121289723Y-68778476D01*
X121194485Y-68826095D01*
%TO.C,C13*%
X105767142Y-77147657D02*
X105814761Y-77195276D01*
X105862380Y-77338133D01*
X105862380Y-77433371D01*
X105814761Y-77576228D01*
X105719523Y-77671466D01*
X105624285Y-77719085D01*
X105433809Y-77766704D01*
X105290952Y-77766704D01*
X105100476Y-77719085D01*
X105005238Y-77671466D01*
X104910000Y-77576228D01*
X104862380Y-77433371D01*
X104862380Y-77338133D01*
X104910000Y-77195276D01*
X104957619Y-77147657D01*
X105862380Y-76195276D02*
X105862380Y-76766704D01*
X105862380Y-76480990D02*
X104862380Y-76480990D01*
X105005238Y-76576228D01*
X105100476Y-76671466D01*
X105148095Y-76766704D01*
X104862380Y-75861942D02*
X104862380Y-75242895D01*
X105243333Y-75576228D01*
X105243333Y-75433371D01*
X105290952Y-75338133D01*
X105338571Y-75290514D01*
X105433809Y-75242895D01*
X105671904Y-75242895D01*
X105767142Y-75290514D01*
X105814761Y-75338133D01*
X105862380Y-75433371D01*
X105862380Y-75719085D01*
X105814761Y-75814323D01*
X105767142Y-75861942D01*
%TO.C,FB1*%
X105490971Y-73324933D02*
X105490971Y-73658266D01*
X106014780Y-73658266D02*
X105014780Y-73658266D01*
X105014780Y-73182076D01*
X105490971Y-72467790D02*
X105538590Y-72324933D01*
X105586209Y-72277314D01*
X105681447Y-72229695D01*
X105824304Y-72229695D01*
X105919542Y-72277314D01*
X105967161Y-72324933D01*
X106014780Y-72420171D01*
X106014780Y-72801123D01*
X105014780Y-72801123D01*
X105014780Y-72467790D01*
X105062400Y-72372552D01*
X105110019Y-72324933D01*
X105205257Y-72277314D01*
X105300495Y-72277314D01*
X105395733Y-72324933D01*
X105443352Y-72372552D01*
X105490971Y-72467790D01*
X105490971Y-72801123D01*
X106014780Y-71277314D02*
X106014780Y-71848742D01*
X106014780Y-71563028D02*
X105014780Y-71563028D01*
X105157638Y-71658266D01*
X105252876Y-71753504D01*
X105300495Y-71848742D01*
%TO.C,C6*%
X106919733Y-58726342D02*
X106872114Y-58773961D01*
X106729257Y-58821580D01*
X106634019Y-58821580D01*
X106491161Y-58773961D01*
X106395923Y-58678723D01*
X106348304Y-58583485D01*
X106300685Y-58393009D01*
X106300685Y-58250152D01*
X106348304Y-58059676D01*
X106395923Y-57964438D01*
X106491161Y-57869200D01*
X106634019Y-57821580D01*
X106729257Y-57821580D01*
X106872114Y-57869200D01*
X106919733Y-57916819D01*
X107776876Y-57821580D02*
X107586400Y-57821580D01*
X107491161Y-57869200D01*
X107443542Y-57916819D01*
X107348304Y-58059676D01*
X107300685Y-58250152D01*
X107300685Y-58631104D01*
X107348304Y-58726342D01*
X107395923Y-58773961D01*
X107491161Y-58821580D01*
X107681638Y-58821580D01*
X107776876Y-58773961D01*
X107824495Y-58726342D01*
X107872114Y-58631104D01*
X107872114Y-58393009D01*
X107824495Y-58297771D01*
X107776876Y-58250152D01*
X107681638Y-58202533D01*
X107491161Y-58202533D01*
X107395923Y-58250152D01*
X107348304Y-58297771D01*
X107300685Y-58393009D01*
%TO.C,R3*%
X117841733Y-77515980D02*
X117508400Y-77039790D01*
X117270304Y-77515980D02*
X117270304Y-76515980D01*
X117651257Y-76515980D01*
X117746495Y-76563600D01*
X117794114Y-76611219D01*
X117841733Y-76706457D01*
X117841733Y-76849314D01*
X117794114Y-76944552D01*
X117746495Y-76992171D01*
X117651257Y-77039790D01*
X117270304Y-77039790D01*
X118175066Y-76515980D02*
X118794114Y-76515980D01*
X118460780Y-76896933D01*
X118603638Y-76896933D01*
X118698876Y-76944552D01*
X118746495Y-76992171D01*
X118794114Y-77087409D01*
X118794114Y-77325504D01*
X118746495Y-77420742D01*
X118698876Y-77468361D01*
X118603638Y-77515980D01*
X118317923Y-77515980D01*
X118222685Y-77468361D01*
X118175066Y-77420742D01*
%TO.C,R5*%
X126223733Y-57399180D02*
X125890400Y-56922990D01*
X125652304Y-57399180D02*
X125652304Y-56399180D01*
X126033257Y-56399180D01*
X126128495Y-56446800D01*
X126176114Y-56494419D01*
X126223733Y-56589657D01*
X126223733Y-56732514D01*
X126176114Y-56827752D01*
X126128495Y-56875371D01*
X126033257Y-56922990D01*
X125652304Y-56922990D01*
X127128495Y-56399180D02*
X126652304Y-56399180D01*
X126604685Y-56875371D01*
X126652304Y-56827752D01*
X126747542Y-56780133D01*
X126985638Y-56780133D01*
X127080876Y-56827752D01*
X127128495Y-56875371D01*
X127176114Y-56970609D01*
X127176114Y-57208704D01*
X127128495Y-57303942D01*
X127080876Y-57351561D01*
X126985638Y-57399180D01*
X126747542Y-57399180D01*
X126652304Y-57351561D01*
X126604685Y-57303942D01*
%TO.C,C12*%
X112117142Y-74404457D02*
X112164761Y-74452076D01*
X112212380Y-74594933D01*
X112212380Y-74690171D01*
X112164761Y-74833028D01*
X112069523Y-74928266D01*
X111974285Y-74975885D01*
X111783809Y-75023504D01*
X111640952Y-75023504D01*
X111450476Y-74975885D01*
X111355238Y-74928266D01*
X111260000Y-74833028D01*
X111212380Y-74690171D01*
X111212380Y-74594933D01*
X111260000Y-74452076D01*
X111307619Y-74404457D01*
X112212380Y-73452076D02*
X112212380Y-74023504D01*
X112212380Y-73737790D02*
X111212380Y-73737790D01*
X111355238Y-73833028D01*
X111450476Y-73928266D01*
X111498095Y-74023504D01*
X111307619Y-73071123D02*
X111260000Y-73023504D01*
X111212380Y-72928266D01*
X111212380Y-72690171D01*
X111260000Y-72594933D01*
X111307619Y-72547314D01*
X111402857Y-72499695D01*
X111498095Y-72499695D01*
X111640952Y-72547314D01*
X112212380Y-73118742D01*
X112212380Y-72499695D01*
%TO.C,C2*%
X130795733Y-78792342D02*
X130748114Y-78839961D01*
X130605257Y-78887580D01*
X130510019Y-78887580D01*
X130367161Y-78839961D01*
X130271923Y-78744723D01*
X130224304Y-78649485D01*
X130176685Y-78459009D01*
X130176685Y-78316152D01*
X130224304Y-78125676D01*
X130271923Y-78030438D01*
X130367161Y-77935200D01*
X130510019Y-77887580D01*
X130605257Y-77887580D01*
X130748114Y-77935200D01*
X130795733Y-77982819D01*
X131176685Y-77982819D02*
X131224304Y-77935200D01*
X131319542Y-77887580D01*
X131557638Y-77887580D01*
X131652876Y-77935200D01*
X131700495Y-77982819D01*
X131748114Y-78078057D01*
X131748114Y-78173295D01*
X131700495Y-78316152D01*
X131129066Y-78887580D01*
X131748114Y-78887580D01*
%TO.C,Y1*%
X97821809Y-65050990D02*
X97821809Y-65527180D01*
X97488476Y-64527180D02*
X97821809Y-65050990D01*
X98155142Y-64527180D01*
X99012285Y-65527180D02*
X98440857Y-65527180D01*
X98726571Y-65527180D02*
X98726571Y-64527180D01*
X98631333Y-64670038D01*
X98536095Y-64765276D01*
X98440857Y-64812895D01*
%TO.C,C8*%
X121854933Y-57100742D02*
X121807314Y-57148361D01*
X121664457Y-57195980D01*
X121569219Y-57195980D01*
X121426361Y-57148361D01*
X121331123Y-57053123D01*
X121283504Y-56957885D01*
X121235885Y-56767409D01*
X121235885Y-56624552D01*
X121283504Y-56434076D01*
X121331123Y-56338838D01*
X121426361Y-56243600D01*
X121569219Y-56195980D01*
X121664457Y-56195980D01*
X121807314Y-56243600D01*
X121854933Y-56291219D01*
X122426361Y-56624552D02*
X122331123Y-56576933D01*
X122283504Y-56529314D01*
X122235885Y-56434076D01*
X122235885Y-56386457D01*
X122283504Y-56291219D01*
X122331123Y-56243600D01*
X122426361Y-56195980D01*
X122616838Y-56195980D01*
X122712076Y-56243600D01*
X122759695Y-56291219D01*
X122807314Y-56386457D01*
X122807314Y-56434076D01*
X122759695Y-56529314D01*
X122712076Y-56576933D01*
X122616838Y-56624552D01*
X122426361Y-56624552D01*
X122331123Y-56672171D01*
X122283504Y-56719790D01*
X122235885Y-56815028D01*
X122235885Y-57005504D01*
X122283504Y-57100742D01*
X122331123Y-57148361D01*
X122426361Y-57195980D01*
X122616838Y-57195980D01*
X122712076Y-57148361D01*
X122759695Y-57100742D01*
X122807314Y-57005504D01*
X122807314Y-56815028D01*
X122759695Y-56719790D01*
X122712076Y-56672171D01*
X122616838Y-56624552D01*
%TO.C,C11*%
X109602542Y-68143757D02*
X109650161Y-68191376D01*
X109697780Y-68334233D01*
X109697780Y-68429471D01*
X109650161Y-68572328D01*
X109554923Y-68667566D01*
X109459685Y-68715185D01*
X109269209Y-68762804D01*
X109126352Y-68762804D01*
X108935876Y-68715185D01*
X108840638Y-68667566D01*
X108745400Y-68572328D01*
X108697780Y-68429471D01*
X108697780Y-68334233D01*
X108745400Y-68191376D01*
X108793019Y-68143757D01*
X109697780Y-67191376D02*
X109697780Y-67762804D01*
X109697780Y-67477090D02*
X108697780Y-67477090D01*
X108840638Y-67572328D01*
X108935876Y-67667566D01*
X108983495Y-67762804D01*
X109697780Y-66238995D02*
X109697780Y-66810423D01*
X109697780Y-66524709D02*
X108697780Y-66524709D01*
X108840638Y-66619947D01*
X108935876Y-66715185D01*
X108983495Y-66810423D01*
%TO.C,U1*%
X126187295Y-80300580D02*
X126187295Y-81110104D01*
X126234914Y-81205342D01*
X126282533Y-81252961D01*
X126377771Y-81300580D01*
X126568247Y-81300580D01*
X126663485Y-81252961D01*
X126711104Y-81205342D01*
X126758723Y-81110104D01*
X126758723Y-80300580D01*
X127758723Y-81300580D02*
X127187295Y-81300580D01*
X127473009Y-81300580D02*
X127473009Y-80300580D01*
X127377771Y-80443438D01*
X127282533Y-80538676D01*
X127187295Y-80586295D01*
%TO.C,R4*%
X105522733Y-53572580D02*
X105189400Y-53096390D01*
X104951304Y-53572580D02*
X104951304Y-52572580D01*
X105332257Y-52572580D01*
X105427495Y-52620200D01*
X105475114Y-52667819D01*
X105522733Y-52763057D01*
X105522733Y-52905914D01*
X105475114Y-53001152D01*
X105427495Y-53048771D01*
X105332257Y-53096390D01*
X104951304Y-53096390D01*
X106379876Y-52905914D02*
X106379876Y-53572580D01*
X106141780Y-52524961D02*
X105903685Y-53239247D01*
X106522733Y-53239247D01*
%TO.C,R1*%
X134488180Y-69381666D02*
X134011990Y-69715000D01*
X134488180Y-69953095D02*
X133488180Y-69953095D01*
X133488180Y-69572142D01*
X133535800Y-69476904D01*
X133583419Y-69429285D01*
X133678657Y-69381666D01*
X133821514Y-69381666D01*
X133916752Y-69429285D01*
X133964371Y-69476904D01*
X134011990Y-69572142D01*
X134011990Y-69953095D01*
X134488180Y-68429285D02*
X134488180Y-69000714D01*
X134488180Y-68715000D02*
X133488180Y-68715000D01*
X133631038Y-68810238D01*
X133726276Y-68905476D01*
X133773895Y-69000714D01*
%TO.C,D1*%
X132916704Y-76525380D02*
X132916704Y-75525380D01*
X133154800Y-75525380D01*
X133297657Y-75573000D01*
X133392895Y-75668238D01*
X133440514Y-75763476D01*
X133488133Y-75953952D01*
X133488133Y-76096809D01*
X133440514Y-76287285D01*
X133392895Y-76382523D01*
X133297657Y-76477761D01*
X133154800Y-76525380D01*
X132916704Y-76525380D01*
X134440514Y-76525380D02*
X133869085Y-76525380D01*
X134154800Y-76525380D02*
X134154800Y-75525380D01*
X134059561Y-75668238D01*
X133964323Y-75763476D01*
X133869085Y-75811095D01*
%TO.C,C9*%
X101433333Y-70003942D02*
X101385714Y-70051561D01*
X101242857Y-70099180D01*
X101147619Y-70099180D01*
X101004761Y-70051561D01*
X100909523Y-69956323D01*
X100861904Y-69861085D01*
X100814285Y-69670609D01*
X100814285Y-69527752D01*
X100861904Y-69337276D01*
X100909523Y-69242038D01*
X101004761Y-69146800D01*
X101147619Y-69099180D01*
X101242857Y-69099180D01*
X101385714Y-69146800D01*
X101433333Y-69194419D01*
X101909523Y-70099180D02*
X102100000Y-70099180D01*
X102195238Y-70051561D01*
X102242857Y-70003942D01*
X102338095Y-69861085D01*
X102385714Y-69670609D01*
X102385714Y-69289657D01*
X102338095Y-69194419D01*
X102290476Y-69146800D01*
X102195238Y-69099180D01*
X102004761Y-69099180D01*
X101909523Y-69146800D01*
X101861904Y-69194419D01*
X101814285Y-69289657D01*
X101814285Y-69527752D01*
X101861904Y-69622990D01*
X101909523Y-69670609D01*
X102004761Y-69718228D01*
X102195238Y-69718228D01*
X102290476Y-69670609D01*
X102338095Y-69622990D01*
X102385714Y-69527752D01*
%TO.C,R2*%
X112710933Y-77439780D02*
X112377600Y-76963590D01*
X112139504Y-77439780D02*
X112139504Y-76439780D01*
X112520457Y-76439780D01*
X112615695Y-76487400D01*
X112663314Y-76535019D01*
X112710933Y-76630257D01*
X112710933Y-76773114D01*
X112663314Y-76868352D01*
X112615695Y-76915971D01*
X112520457Y-76963590D01*
X112139504Y-76963590D01*
X113091885Y-76535019D02*
X113139504Y-76487400D01*
X113234742Y-76439780D01*
X113472838Y-76439780D01*
X113568076Y-76487400D01*
X113615695Y-76535019D01*
X113663314Y-76630257D01*
X113663314Y-76725495D01*
X113615695Y-76868352D01*
X113044266Y-77439780D01*
X113663314Y-77439780D01*
%TO.C,C4*%
X115733533Y-75947542D02*
X115685914Y-75995161D01*
X115543057Y-76042780D01*
X115447819Y-76042780D01*
X115304961Y-75995161D01*
X115209723Y-75899923D01*
X115162104Y-75804685D01*
X115114485Y-75614209D01*
X115114485Y-75471352D01*
X115162104Y-75280876D01*
X115209723Y-75185638D01*
X115304961Y-75090400D01*
X115447819Y-75042780D01*
X115543057Y-75042780D01*
X115685914Y-75090400D01*
X115733533Y-75138019D01*
X116590676Y-75376114D02*
X116590676Y-76042780D01*
X116352580Y-74995161D02*
X116114485Y-75709447D01*
X116733533Y-75709447D01*
%TO.C,C3*%
X116063733Y-54230542D02*
X116016114Y-54278161D01*
X115873257Y-54325780D01*
X115778019Y-54325780D01*
X115635161Y-54278161D01*
X115539923Y-54182923D01*
X115492304Y-54087685D01*
X115444685Y-53897209D01*
X115444685Y-53754352D01*
X115492304Y-53563876D01*
X115539923Y-53468638D01*
X115635161Y-53373400D01*
X115778019Y-53325780D01*
X115873257Y-53325780D01*
X116016114Y-53373400D01*
X116063733Y-53421019D01*
X116397066Y-53325780D02*
X117016114Y-53325780D01*
X116682780Y-53706733D01*
X116825638Y-53706733D01*
X116920876Y-53754352D01*
X116968495Y-53801971D01*
X117016114Y-53897209D01*
X117016114Y-54135304D01*
X116968495Y-54230542D01*
X116920876Y-54278161D01*
X116825638Y-54325780D01*
X116539923Y-54325780D01*
X116444685Y-54278161D01*
X116397066Y-54230542D01*
%TO.C,C10*%
X118873542Y-71280257D02*
X118921161Y-71327876D01*
X118968780Y-71470733D01*
X118968780Y-71565971D01*
X118921161Y-71708828D01*
X118825923Y-71804066D01*
X118730685Y-71851685D01*
X118540209Y-71899304D01*
X118397352Y-71899304D01*
X118206876Y-71851685D01*
X118111638Y-71804066D01*
X118016400Y-71708828D01*
X117968780Y-71565971D01*
X117968780Y-71470733D01*
X118016400Y-71327876D01*
X118064019Y-71280257D01*
X118968780Y-70327876D02*
X118968780Y-70899304D01*
X118968780Y-70613590D02*
X117968780Y-70613590D01*
X118111638Y-70708828D01*
X118206876Y-70804066D01*
X118254495Y-70899304D01*
X117968780Y-69708828D02*
X117968780Y-69613590D01*
X118016400Y-69518352D01*
X118064019Y-69470733D01*
X118159257Y-69423114D01*
X118349733Y-69375495D01*
X118587828Y-69375495D01*
X118778304Y-69423114D01*
X118873542Y-69470733D01*
X118921161Y-69518352D01*
X118968780Y-69613590D01*
X118968780Y-69708828D01*
X118921161Y-69804066D01*
X118873542Y-69851685D01*
X118778304Y-69899304D01*
X118587828Y-69946923D01*
X118349733Y-69946923D01*
X118159257Y-69899304D01*
X118064019Y-69851685D01*
X118016400Y-69804066D01*
X117968780Y-69708828D01*
%TO.C,C7*%
X116063733Y-56846742D02*
X116016114Y-56894361D01*
X115873257Y-56941980D01*
X115778019Y-56941980D01*
X115635161Y-56894361D01*
X115539923Y-56799123D01*
X115492304Y-56703885D01*
X115444685Y-56513409D01*
X115444685Y-56370552D01*
X115492304Y-56180076D01*
X115539923Y-56084838D01*
X115635161Y-55989600D01*
X115778019Y-55941980D01*
X115873257Y-55941980D01*
X116016114Y-55989600D01*
X116063733Y-56037219D01*
X116397066Y-55941980D02*
X117063733Y-55941980D01*
X116635161Y-56941980D01*
%TO.C,U2*%
X109169295Y-58481980D02*
X109169295Y-59291504D01*
X109216914Y-59386742D01*
X109264533Y-59434361D01*
X109359771Y-59481980D01*
X109550247Y-59481980D01*
X109645485Y-59434361D01*
X109693104Y-59386742D01*
X109740723Y-59291504D01*
X109740723Y-58481980D01*
X110169295Y-58577219D02*
X110216914Y-58529600D01*
X110312152Y-58481980D01*
X110550247Y-58481980D01*
X110645485Y-58529600D01*
X110693104Y-58577219D01*
X110740723Y-58672457D01*
X110740723Y-58767695D01*
X110693104Y-58910552D01*
X110121676Y-59481980D01*
X110740723Y-59481980D01*
D12*
%TO.C,C5*%
X102311252Y-57941800D02*
X100888748Y-57941800D01*
X102311252Y-59761800D02*
X100888748Y-59761800D01*
%TO.C,C1*%
X123926548Y-68152600D02*
X125349052Y-68152600D01*
X123926548Y-69972600D02*
X125349052Y-69972600D01*
%TO.C,C13*%
X108153148Y-77262400D02*
X109575652Y-77262400D01*
X108153148Y-75442400D02*
X109575652Y-75442400D01*
%TO.C,FB1*%
X106780400Y-72030558D02*
X106780400Y-72851042D01*
X107900400Y-72030558D02*
X107900400Y-72851042D01*
%TO.C,C6*%
X106303400Y-61112348D02*
X106303400Y-62534852D01*
X108123400Y-61112348D02*
X108123400Y-62534852D01*
%TO.C,SW1*%
X96070000Y-53241200D02*
X95280000Y-53241200D01*
X97120000Y-58091200D02*
X97120000Y-58291200D01*
X95280000Y-60141200D02*
X96070000Y-60141200D01*
X94270000Y-53841200D02*
X94270000Y-59541200D01*
X97120000Y-55091200D02*
X97120000Y-56791200D01*
%TO.C,R3*%
X118659264Y-79853200D02*
X117205136Y-79853200D01*
X118659264Y-78033200D02*
X117205136Y-78033200D01*
%TO.C,R5*%
X127249600Y-59470936D02*
X127249600Y-60925064D01*
X125429600Y-59470936D02*
X125429600Y-60925064D01*
%TO.C,C12*%
X110739600Y-71170748D02*
X110739600Y-72593252D01*
X108919600Y-71170748D02*
X108919600Y-72593252D01*
%TO.C,C2*%
X129976200Y-75514252D02*
X129976200Y-74091748D01*
X131796200Y-75514252D02*
X131796200Y-74091748D01*
%TO.C,J1*%
X111089600Y-45914000D02*
X111089600Y-48574000D01*
X103409600Y-45914000D02*
X103409600Y-48574000D01*
X112359600Y-45914000D02*
X113689600Y-45914000D01*
X113689600Y-45914000D02*
X113689600Y-47244000D01*
X111089600Y-48574000D02*
X103409600Y-48574000D01*
X111089600Y-45914000D02*
X103409600Y-45914000D01*
%TO.C,Y1*%
X99324600Y-60469800D02*
X99324600Y-65869800D01*
X103824600Y-60469800D02*
X99324600Y-60469800D01*
%TO.C,C8*%
X121411948Y-57814800D02*
X122834452Y-57814800D01*
X121411948Y-59634800D02*
X122834452Y-59634800D01*
%TO.C,J2*%
X109347800Y-84261000D02*
X109347800Y-82931000D01*
X111947800Y-84261000D02*
X119627800Y-84261000D01*
X119627800Y-84261000D02*
X119627800Y-81601000D01*
X110677800Y-84261000D02*
X109347800Y-84261000D01*
X111947800Y-84261000D02*
X111947800Y-81601000D01*
X111947800Y-81601000D02*
X119627800Y-81601000D01*
%TO.C,C11*%
X108148800Y-68275252D02*
X108148800Y-66852748D01*
X106328800Y-68275252D02*
X106328800Y-66852748D01*
%TO.C,U1*%
X129267000Y-77017800D02*
X128007000Y-77017800D01*
X122447000Y-77017800D02*
X123707000Y-77017800D01*
X122447000Y-73257800D02*
X122447000Y-77017800D01*
X129267000Y-71007800D02*
X129267000Y-77017800D01*
%TO.C,R4*%
X104962336Y-54030200D02*
X106416464Y-54030200D01*
X104962336Y-55850200D02*
X106416464Y-55850200D01*
%TO.C,J3*%
X123688000Y-48574000D02*
X116008000Y-48574000D01*
X124958000Y-45914000D02*
X126288000Y-45914000D01*
X126288000Y-45914000D02*
X126288000Y-47244000D01*
X116008000Y-45914000D02*
X116008000Y-48574000D01*
X123688000Y-45914000D02*
X123688000Y-48574000D01*
X123688000Y-45914000D02*
X116008000Y-45914000D01*
%TO.C,R1*%
X131511664Y-68127200D02*
X130057536Y-68127200D01*
X131511664Y-69947200D02*
X130057536Y-69947200D01*
%TO.C,D1*%
X134462400Y-74075800D02*
X134462400Y-71215800D01*
X132542400Y-71215800D02*
X132542400Y-74075800D01*
X134462400Y-71215800D02*
X132542400Y-71215800D01*
D11*
%TO.C,J4*%
X134475000Y-66320000D02*
X134625000Y-66320000D01*
X132075000Y-58020000D02*
X130675000Y-58020000D01*
X134625000Y-58320000D02*
X134625000Y-58020000D01*
X134625000Y-66320000D02*
X134625000Y-66020000D01*
X130675000Y-66320000D02*
X132075000Y-66320000D01*
X134625000Y-66020000D02*
X135075000Y-66020000D01*
X128925000Y-63970000D02*
X128925000Y-64970000D01*
X128500000Y-63970000D02*
X128925000Y-63970000D01*
X128500000Y-63245000D02*
X128500000Y-63970000D01*
X135075000Y-58320000D02*
X134625000Y-58320000D01*
X128925000Y-60370000D02*
X128925000Y-59370000D01*
X134625000Y-58020000D02*
X134475000Y-58020000D01*
D12*
%TO.C,C9*%
X102336652Y-68474000D02*
X100914148Y-68474000D01*
X102336652Y-66654000D02*
X100914148Y-66654000D01*
%TO.C,R2*%
X111820336Y-79827800D02*
X113274464Y-79827800D01*
X111820336Y-78007800D02*
X113274464Y-78007800D01*
%TO.C,C4*%
X115138148Y-74443000D02*
X116560652Y-74443000D01*
X115138148Y-72623000D02*
X116560652Y-72623000D01*
%TO.C,C3*%
X112013948Y-54808800D02*
X113436452Y-54808800D01*
X112013948Y-52988800D02*
X113436452Y-52988800D01*
%TO.C,C10*%
X115773252Y-71369600D02*
X114350748Y-71369600D01*
X115773252Y-69549600D02*
X114350748Y-69549600D01*
%TO.C,C7*%
X112064748Y-55478000D02*
X113487252Y-55478000D01*
X112064748Y-57298000D02*
X113487252Y-57298000D01*
%TO.C,U2*%
X117460000Y-59890000D02*
X117910000Y-59890000D01*
X117460000Y-67110000D02*
X117910000Y-67110000D01*
X117910000Y-59890000D02*
X117910000Y-60340000D01*
X117910000Y-67110000D02*
X117910000Y-66660000D01*
X111140000Y-67110000D02*
X110690000Y-67110000D01*
X111140000Y-59890000D02*
X110690000Y-59890000D01*
X110690000Y-67110000D02*
X110690000Y-66660000D01*
X110690000Y-60340000D02*
X109400000Y-60340000D01*
X110690000Y-59890000D02*
X110690000Y-60340000D01*
%TD*%
M02*
