%TF.GenerationSoftware,KiCad,Pcbnew,(6.0.10)*%
%TF.CreationDate,2023-02-14T22:37:11+03:00*%
%TF.ProjectId,BluePill,426c7565-5069-46c6-9c2e-6b696361645f,rev?*%
%TF.SameCoordinates,Original*%
%TF.FileFunction,Legend,Bot*%
%TF.FilePolarity,Positive*%
%FSLAX46Y46*%
G04 Gerber Fmt 4.6, Leading zero omitted, Abs format (unit mm)*
G04 Created by KiCad (PCBNEW (6.0.10)) date 2023-02-14 22:37:11*
%MOMM*%
%LPD*%
G01*
G04 APERTURE LIST*
%ADD10C,0.150000*%
G04 APERTURE END LIST*
D10*
X116615257Y-81177171D02*
X116508114Y-81212885D01*
X116329542Y-81212885D01*
X116258114Y-81177171D01*
X116222400Y-81141457D01*
X116186685Y-81070028D01*
X116186685Y-80998600D01*
X116222400Y-80927171D01*
X116258114Y-80891457D01*
X116329542Y-80855742D01*
X116472400Y-80820028D01*
X116543828Y-80784314D01*
X116579542Y-80748600D01*
X116615257Y-80677171D01*
X116615257Y-80605742D01*
X116579542Y-80534314D01*
X116543828Y-80498600D01*
X116472400Y-80462885D01*
X116293828Y-80462885D01*
X116186685Y-80498600D01*
X115543828Y-81212885D02*
X115543828Y-80462885D01*
X115543828Y-81177171D02*
X115615257Y-81212885D01*
X115758114Y-81212885D01*
X115829542Y-81177171D01*
X115865257Y-81141457D01*
X115900971Y-81070028D01*
X115900971Y-80855742D01*
X115865257Y-80784314D01*
X115829542Y-80748600D01*
X115758114Y-80712885D01*
X115615257Y-80712885D01*
X115543828Y-80748600D01*
X114865257Y-81212885D02*
X114865257Y-80820028D01*
X114900971Y-80748600D01*
X114972400Y-80712885D01*
X115115257Y-80712885D01*
X115186685Y-80748600D01*
X114865257Y-81177171D02*
X114936685Y-81212885D01*
X115115257Y-81212885D01*
X115186685Y-81177171D01*
X115222400Y-81105742D01*
X115222400Y-81034314D01*
X115186685Y-80962885D01*
X115115257Y-80927171D01*
X114936685Y-80927171D01*
X114865257Y-80891457D01*
X113863742Y-81177171D02*
X113756600Y-81212885D01*
X113578028Y-81212885D01*
X113506600Y-81177171D01*
X113470885Y-81141457D01*
X113435171Y-81070028D01*
X113435171Y-80998600D01*
X113470885Y-80927171D01*
X113506600Y-80891457D01*
X113578028Y-80855742D01*
X113720885Y-80820028D01*
X113792314Y-80784314D01*
X113828028Y-80748600D01*
X113863742Y-80677171D01*
X113863742Y-80605742D01*
X113828028Y-80534314D01*
X113792314Y-80498600D01*
X113720885Y-80462885D01*
X113542314Y-80462885D01*
X113435171Y-80498600D01*
X112792314Y-81177171D02*
X112863742Y-81212885D01*
X113006600Y-81212885D01*
X113078028Y-81177171D01*
X113113742Y-81141457D01*
X113149457Y-81070028D01*
X113149457Y-80855742D01*
X113113742Y-80784314D01*
X113078028Y-80748600D01*
X113006600Y-80712885D01*
X112863742Y-80712885D01*
X112792314Y-80748600D01*
X112363742Y-81212885D02*
X112435171Y-81177171D01*
X112470885Y-81105742D01*
X112470885Y-80462885D01*
X123040685Y-49666085D02*
X123040685Y-48916085D01*
X122862114Y-48916085D01*
X122754971Y-48951800D01*
X122683542Y-49023228D01*
X122647828Y-49094657D01*
X122612114Y-49237514D01*
X122612114Y-49344657D01*
X122647828Y-49487514D01*
X122683542Y-49558942D01*
X122754971Y-49630371D01*
X122862114Y-49666085D01*
X123040685Y-49666085D01*
X122290685Y-49666085D02*
X122290685Y-49166085D01*
X121826400Y-49666085D02*
X121897828Y-49630371D01*
X121933542Y-49594657D01*
X121969257Y-49523228D01*
X121969257Y-49308942D01*
X121933542Y-49237514D01*
X121897828Y-49201800D01*
X121826400Y-49166085D01*
X121719257Y-49166085D01*
X121647828Y-49201800D01*
X121612114Y-49237514D01*
X121576400Y-49308942D01*
X121576400Y-49523228D01*
X121612114Y-49594657D01*
X121647828Y-49630371D01*
X121719257Y-49666085D01*
X121826400Y-49666085D01*
X120105057Y-49594657D02*
X120140771Y-49630371D01*
X120247914Y-49666085D01*
X120319342Y-49666085D01*
X120426485Y-49630371D01*
X120497914Y-49558942D01*
X120533628Y-49487514D01*
X120569342Y-49344657D01*
X120569342Y-49237514D01*
X120533628Y-49094657D01*
X120497914Y-49023228D01*
X120426485Y-48951800D01*
X120319342Y-48916085D01*
X120247914Y-48916085D01*
X120140771Y-48951800D01*
X120105057Y-48987514D01*
X119676485Y-49666085D02*
X119747914Y-49630371D01*
X119783628Y-49558942D01*
X119783628Y-48916085D01*
X119390771Y-49666085D02*
X119390771Y-48916085D01*
X119319342Y-49380371D02*
X119105057Y-49666085D01*
X119105057Y-49166085D02*
X119390771Y-49451800D01*
X110195057Y-48916085D02*
X109766485Y-48916085D01*
X109980771Y-49666085D02*
X109980771Y-48916085D01*
X109587914Y-49666085D02*
X109195057Y-49166085D01*
X109587914Y-49166085D02*
X109195057Y-49666085D01*
X107157828Y-49666085D02*
X107407828Y-49308942D01*
X107586400Y-49666085D02*
X107586400Y-48916085D01*
X107300685Y-48916085D01*
X107229257Y-48951800D01*
X107193542Y-48987514D01*
X107157828Y-49058942D01*
X107157828Y-49166085D01*
X107193542Y-49237514D01*
X107229257Y-49273228D01*
X107300685Y-49308942D01*
X107586400Y-49308942D01*
X106907828Y-49666085D02*
X106514971Y-49166085D01*
X106907828Y-49166085D02*
X106514971Y-49666085D01*
M02*
