%TF.GenerationSoftware,KiCad,Pcbnew,(6.0.10)*%
%TF.CreationDate,2023-02-14T22:37:11+03:00*%
%TF.ProjectId,BluePill,426c7565-5069-46c6-9c2e-6b696361645f,rev?*%
%TF.SameCoordinates,Original*%
%TF.FileFunction,Copper,L1,Top*%
%TF.FilePolarity,Positive*%
%FSLAX46Y46*%
G04 Gerber Fmt 4.6, Leading zero omitted, Abs format (unit mm)*
G04 Created by KiCad (PCBNEW (6.0.10)) date 2023-02-14 22:37:11*
%MOMM*%
%LPD*%
G01*
G04 APERTURE LIST*
G04 Aperture macros list*
%AMRoundRect*
0 Rectangle with rounded corners*
0 $1 Rounding radius*
0 $2 $3 $4 $5 $6 $7 $8 $9 X,Y pos of 4 corners*
0 Add a 4 corners polygon primitive as box body*
4,1,4,$2,$3,$4,$5,$6,$7,$8,$9,$2,$3,0*
0 Add four circle primitives for the rounded corners*
1,1,$1+$1,$2,$3*
1,1,$1+$1,$4,$5*
1,1,$1+$1,$6,$7*
1,1,$1+$1,$8,$9*
0 Add four rect primitives between the rounded corners*
20,1,$1+$1,$2,$3,$4,$5,0*
20,1,$1+$1,$4,$5,$6,$7,0*
20,1,$1+$1,$6,$7,$8,$9,0*
20,1,$1+$1,$8,$9,$2,$3,0*%
G04 Aperture macros list end*
%TA.AperFunction,SMDPad,CuDef*%
%ADD10RoundRect,0.250000X0.412500X0.650000X-0.412500X0.650000X-0.412500X-0.650000X0.412500X-0.650000X0*%
%TD*%
%TA.AperFunction,SMDPad,CuDef*%
%ADD11RoundRect,0.250000X-0.412500X-0.650000X0.412500X-0.650000X0.412500X0.650000X-0.412500X0.650000X0*%
%TD*%
%TA.AperFunction,SMDPad,CuDef*%
%ADD12RoundRect,0.250000X-0.350000X0.275000X-0.350000X-0.275000X0.350000X-0.275000X0.350000X0.275000X0*%
%TD*%
%TA.AperFunction,SMDPad,CuDef*%
%ADD13RoundRect,0.250000X-0.650000X0.412500X-0.650000X-0.412500X0.650000X-0.412500X0.650000X0.412500X0*%
%TD*%
%TA.AperFunction,SMDPad,CuDef*%
%ADD14R,0.800000X1.000000*%
%TD*%
%TA.AperFunction,SMDPad,CuDef*%
%ADD15R,1.500000X0.700000*%
%TD*%
%TA.AperFunction,SMDPad,CuDef*%
%ADD16RoundRect,0.250000X0.400000X0.625000X-0.400000X0.625000X-0.400000X-0.625000X0.400000X-0.625000X0*%
%TD*%
%TA.AperFunction,SMDPad,CuDef*%
%ADD17RoundRect,0.250000X-0.625000X0.400000X-0.625000X-0.400000X0.625000X-0.400000X0.625000X0.400000X0*%
%TD*%
%TA.AperFunction,SMDPad,CuDef*%
%ADD18RoundRect,0.250000X0.650000X-0.412500X0.650000X0.412500X-0.650000X0.412500X-0.650000X-0.412500X0*%
%TD*%
%TA.AperFunction,ComponentPad*%
%ADD19R,1.700000X1.700000*%
%TD*%
%TA.AperFunction,ComponentPad*%
%ADD20O,1.700000X1.700000*%
%TD*%
%TA.AperFunction,SMDPad,CuDef*%
%ADD21R,1.800000X2.100000*%
%TD*%
%TA.AperFunction,SMDPad,CuDef*%
%ADD22R,1.500000X2.000000*%
%TD*%
%TA.AperFunction,SMDPad,CuDef*%
%ADD23R,3.800000X2.000000*%
%TD*%
%TA.AperFunction,SMDPad,CuDef*%
%ADD24RoundRect,0.250000X-0.400000X-0.625000X0.400000X-0.625000X0.400000X0.625000X-0.400000X0.625000X0*%
%TD*%
%TA.AperFunction,SMDPad,CuDef*%
%ADD25RoundRect,0.250000X-0.450000X0.325000X-0.450000X-0.325000X0.450000X-0.325000X0.450000X0.325000X0*%
%TD*%
%TA.AperFunction,SMDPad,CuDef*%
%ADD26R,1.300000X0.450000*%
%TD*%
%TA.AperFunction,ComponentPad*%
%ADD27O,2.000000X1.450000*%
%TD*%
%TA.AperFunction,ComponentPad*%
%ADD28O,1.800000X1.150000*%
%TD*%
%TA.AperFunction,SMDPad,CuDef*%
%ADD29RoundRect,0.075000X-0.662500X-0.075000X0.662500X-0.075000X0.662500X0.075000X-0.662500X0.075000X0*%
%TD*%
%TA.AperFunction,SMDPad,CuDef*%
%ADD30RoundRect,0.075000X-0.075000X-0.662500X0.075000X-0.662500X0.075000X0.662500X-0.075000X0.662500X0*%
%TD*%
%TA.AperFunction,ViaPad*%
%ADD31C,0.800000*%
%TD*%
%TA.AperFunction,Conductor*%
%ADD32C,0.300000*%
%TD*%
%TA.AperFunction,Conductor*%
%ADD33C,0.500000*%
%TD*%
%TA.AperFunction,Conductor*%
%ADD34C,0.200000*%
%TD*%
G04 APERTURE END LIST*
D10*
%TO.P,C5,1*%
%TO.N,/HSE_IN*%
X103162500Y-58851800D03*
%TO.P,C5,2*%
%TO.N,GND*%
X100037500Y-58851800D03*
%TD*%
D11*
%TO.P,C1,1*%
%TO.N,VBUS*%
X123075300Y-69062600D03*
%TO.P,C1,2*%
%TO.N,GND*%
X126200300Y-69062600D03*
%TD*%
%TO.P,C13,1*%
%TO.N,+3.3V*%
X107301900Y-76352400D03*
%TO.P,C13,2*%
%TO.N,GND*%
X110426900Y-76352400D03*
%TD*%
D12*
%TO.P,FB1,1*%
%TO.N,+3.3VA*%
X107340400Y-71290800D03*
%TO.P,FB1,2*%
%TO.N,+3.3V*%
X107340400Y-73590800D03*
%TD*%
D13*
%TO.P,C6,2*%
%TO.N,GND*%
X107213400Y-63386100D03*
%TO.P,C6,1*%
%TO.N,+3.3V*%
X107213400Y-60261100D03*
%TD*%
D14*
%TO.P,SW1,*%
%TO.N,*%
X94570000Y-53041200D03*
X96780000Y-53041200D03*
X94570000Y-60341200D03*
X96780000Y-60341200D03*
D15*
%TO.P,SW1,1,A*%
%TO.N,GND*%
X97430000Y-54441200D03*
%TO.P,SW1,2,B*%
%TO.N,Net-(R4-Pad1)*%
X97430000Y-57441200D03*
%TO.P,SW1,3,C*%
%TO.N,+3.3V*%
X97430000Y-58941200D03*
%TD*%
D16*
%TO.P,R3,1*%
%TO.N,+3.3V*%
X119482200Y-78943200D03*
%TO.P,R3,2*%
%TO.N,/I2C2_SDA*%
X116382200Y-78943200D03*
%TD*%
D17*
%TO.P,R5,2*%
%TO.N,/USB_D+*%
X126339600Y-61748000D03*
%TO.P,R5,1*%
%TO.N,+3.3V*%
X126339600Y-58648000D03*
%TD*%
D13*
%TO.P,C12,1*%
%TO.N,+3.3VA*%
X109829600Y-70319500D03*
%TO.P,C12,2*%
%TO.N,GND*%
X109829600Y-73444500D03*
%TD*%
D18*
%TO.P,C2,1*%
%TO.N,+3.3V*%
X130886200Y-76365500D03*
%TO.P,C2,2*%
%TO.N,GND*%
X130886200Y-73240500D03*
%TD*%
D19*
%TO.P,J1,1,Pin_1*%
%TO.N,+3.3V*%
X112359600Y-47244000D03*
D20*
%TO.P,J1,2,Pin_2*%
%TO.N,/USART1_TX*%
X109819600Y-47244000D03*
%TO.P,J1,3,Pin_3*%
%TO.N,/USART1_RX*%
X107279600Y-47244000D03*
%TO.P,J1,4,Pin_4*%
%TO.N,GND*%
X104739600Y-47244000D03*
%TD*%
D21*
%TO.P,Y1,1,1*%
%TO.N,/HSE_IN*%
X100424600Y-61719800D03*
%TO.P,Y1,2,2*%
%TO.N,GND*%
X100424600Y-64619800D03*
%TO.P,Y1,3,3*%
%TO.N,/HSE_OUT*%
X102724600Y-64619800D03*
%TO.P,Y1,4,4*%
%TO.N,GND*%
X102724600Y-61719800D03*
%TD*%
D11*
%TO.P,C8,1*%
%TO.N,+3.3V*%
X120560700Y-58724800D03*
%TO.P,C8,2*%
%TO.N,GND*%
X123685700Y-58724800D03*
%TD*%
D19*
%TO.P,J2,1,Pin_1*%
%TO.N,+3.3V*%
X110677800Y-82931000D03*
D20*
%TO.P,J2,2,Pin_2*%
%TO.N,/I2C2_SCL*%
X113217800Y-82931000D03*
%TO.P,J2,3,Pin_3*%
%TO.N,/I2C2_SDA*%
X115757800Y-82931000D03*
%TO.P,J2,4,Pin_4*%
%TO.N,GND*%
X118297800Y-82931000D03*
%TD*%
D18*
%TO.P,C11,1*%
%TO.N,+3.3VA*%
X107238800Y-69126500D03*
%TO.P,C11,2*%
%TO.N,GND*%
X107238800Y-66001500D03*
%TD*%
D22*
%TO.P,U1,1,GND*%
%TO.N,GND*%
X128157000Y-71957800D03*
%TO.P,U1,2,VO*%
%TO.N,+3.3V*%
X125857000Y-71957800D03*
D23*
X125857000Y-78257800D03*
D22*
%TO.P,U1,3,VI*%
%TO.N,VBUS*%
X123557000Y-71957800D03*
%TD*%
D24*
%TO.P,R4,1*%
%TO.N,Net-(R4-Pad1)*%
X104139400Y-54940200D03*
%TO.P,R4,2*%
%TO.N,/BOOT0*%
X107239400Y-54940200D03*
%TD*%
D19*
%TO.P,J3,1,Pin_1*%
%TO.N,+3.3V*%
X124958000Y-47244000D03*
D20*
%TO.P,J3,2,Pin_2*%
%TO.N,/SWDIO*%
X122418000Y-47244000D03*
%TO.P,J3,3,Pin_3*%
%TO.N,/SWCLK*%
X119878000Y-47244000D03*
%TO.P,J3,4,Pin_4*%
%TO.N,GND*%
X117338000Y-47244000D03*
%TD*%
D16*
%TO.P,R1,1*%
%TO.N,/PWR_LED_K*%
X132334600Y-69037200D03*
%TO.P,R1,2*%
%TO.N,GND*%
X129234600Y-69037200D03*
%TD*%
D25*
%TO.P,D1,1,K*%
%TO.N,/PWR_LED_K*%
X133502400Y-72050800D03*
%TO.P,D1,2,A*%
%TO.N,+3.3V*%
X133502400Y-74100800D03*
%TD*%
D26*
%TO.P,J4,1,VBUS*%
%TO.N,VBUS*%
X129425000Y-63470000D03*
%TO.P,J4,2,D-*%
%TO.N,/USB_D-*%
X129425000Y-62820000D03*
%TO.P,J4,3,D+*%
%TO.N,/USB_D+*%
X129425000Y-62170000D03*
%TO.P,J4,4,ID*%
%TO.N,unconnected-(J4-Pad4)*%
X129425000Y-61520000D03*
%TO.P,J4,5,GND*%
%TO.N,GND*%
X129425000Y-60870000D03*
D27*
%TO.P,J4,6,Shield*%
%TO.N,unconnected-(J4-Pad6)*%
X129475000Y-58445000D03*
D28*
X133275000Y-58295000D03*
X133275000Y-66045000D03*
D27*
X129475000Y-65895000D03*
%TD*%
D10*
%TO.P,C9,2*%
%TO.N,GND*%
X100062900Y-67564000D03*
%TO.P,C9,1*%
%TO.N,/HSE_OUT*%
X103187900Y-67564000D03*
%TD*%
D24*
%TO.P,R2,1*%
%TO.N,+3.3V*%
X110997400Y-78917800D03*
%TO.P,R2,2*%
%TO.N,/I2C2_SCL*%
X114097400Y-78917800D03*
%TD*%
D11*
%TO.P,C4,1*%
%TO.N,/NRST*%
X114286900Y-73533000D03*
%TO.P,C4,2*%
%TO.N,GND*%
X117411900Y-73533000D03*
%TD*%
%TO.P,C3,1*%
%TO.N,+3.3V*%
X111162700Y-53898800D03*
%TO.P,C3,2*%
%TO.N,GND*%
X114287700Y-53898800D03*
%TD*%
D10*
%TO.P,C10,1*%
%TO.N,+3.3V*%
X116624500Y-70459600D03*
%TO.P,C10,2*%
%TO.N,GND*%
X113499500Y-70459600D03*
%TD*%
D11*
%TO.P,C7,1*%
%TO.N,+3.3V*%
X111213500Y-56388000D03*
%TO.P,C7,2*%
%TO.N,GND*%
X114338500Y-56388000D03*
%TD*%
D29*
%TO.P,U2,1,VBAT*%
%TO.N,+3.3V*%
X110137500Y-60750000D03*
%TO.P,U2,2,PC13*%
%TO.N,unconnected-(U2-Pad2)*%
X110137500Y-61250000D03*
%TO.P,U2,3,PC14*%
%TO.N,unconnected-(U2-Pad3)*%
X110137500Y-61750000D03*
%TO.P,U2,4,PC15*%
%TO.N,unconnected-(U2-Pad4)*%
X110137500Y-62250000D03*
%TO.P,U2,5,PD0*%
%TO.N,/HSE_IN*%
X110137500Y-62750000D03*
%TO.P,U2,6,PD1*%
%TO.N,/HSE_OUT*%
X110137500Y-63250000D03*
%TO.P,U2,7,NRST*%
%TO.N,/NRST*%
X110137500Y-63750000D03*
%TO.P,U2,8,VSSA*%
%TO.N,GND*%
X110137500Y-64250000D03*
%TO.P,U2,9,VDDA*%
%TO.N,+3.3VA*%
X110137500Y-64750000D03*
%TO.P,U2,10,PA0*%
%TO.N,unconnected-(U2-Pad10)*%
X110137500Y-65250000D03*
%TO.P,U2,11,PA1*%
%TO.N,unconnected-(U2-Pad11)*%
X110137500Y-65750000D03*
%TO.P,U2,12,PA2*%
%TO.N,unconnected-(U2-Pad12)*%
X110137500Y-66250000D03*
D30*
%TO.P,U2,13,PA3*%
%TO.N,unconnected-(U2-Pad13)*%
X111550000Y-67662500D03*
%TO.P,U2,14,PA4*%
%TO.N,unconnected-(U2-Pad14)*%
X112050000Y-67662500D03*
%TO.P,U2,15,PA5*%
%TO.N,unconnected-(U2-Pad15)*%
X112550000Y-67662500D03*
%TO.P,U2,16,PA6*%
%TO.N,unconnected-(U2-Pad16)*%
X113050000Y-67662500D03*
%TO.P,U2,17,PA7*%
%TO.N,unconnected-(U2-Pad17)*%
X113550000Y-67662500D03*
%TO.P,U2,18,PB0*%
%TO.N,unconnected-(U2-Pad18)*%
X114050000Y-67662500D03*
%TO.P,U2,19,PB1*%
%TO.N,unconnected-(U2-Pad19)*%
X114550000Y-67662500D03*
%TO.P,U2,20,PB2*%
%TO.N,unconnected-(U2-Pad20)*%
X115050000Y-67662500D03*
%TO.P,U2,21,PB10*%
%TO.N,/I2C2_SCL*%
X115550000Y-67662500D03*
%TO.P,U2,22,PB11*%
%TO.N,/I2C2_SDA*%
X116050000Y-67662500D03*
%TO.P,U2,23,VSS*%
%TO.N,GND*%
X116550000Y-67662500D03*
%TO.P,U2,24,VDD*%
%TO.N,+3.3V*%
X117050000Y-67662500D03*
D29*
%TO.P,U2,25,PB12*%
%TO.N,unconnected-(U2-Pad25)*%
X118462500Y-66250000D03*
%TO.P,U2,26,PB13*%
%TO.N,unconnected-(U2-Pad26)*%
X118462500Y-65750000D03*
%TO.P,U2,27,PB14*%
%TO.N,unconnected-(U2-Pad27)*%
X118462500Y-65250000D03*
%TO.P,U2,28,PB15*%
%TO.N,unconnected-(U2-Pad28)*%
X118462500Y-64750000D03*
%TO.P,U2,29,PA8*%
%TO.N,unconnected-(U2-Pad29)*%
X118462500Y-64250000D03*
%TO.P,U2,30,PA9*%
%TO.N,unconnected-(U2-Pad30)*%
X118462500Y-63750000D03*
%TO.P,U2,31,PA10*%
%TO.N,unconnected-(U2-Pad31)*%
X118462500Y-63250000D03*
%TO.P,U2,32,PA11*%
%TO.N,/USB_D-*%
X118462500Y-62750000D03*
%TO.P,U2,33,PA12*%
%TO.N,/USB_D+*%
X118462500Y-62250000D03*
%TO.P,U2,34,PA13*%
%TO.N,/SWDIO*%
X118462500Y-61750000D03*
%TO.P,U2,35,VSS*%
%TO.N,GND*%
X118462500Y-61250000D03*
%TO.P,U2,36,VDD*%
%TO.N,+3.3V*%
X118462500Y-60750000D03*
D30*
%TO.P,U2,37,PA14*%
%TO.N,/SWCLK*%
X117050000Y-59337500D03*
%TO.P,U2,38,PA15*%
%TO.N,unconnected-(U2-Pad38)*%
X116550000Y-59337500D03*
%TO.P,U2,39,PB3*%
%TO.N,unconnected-(U2-Pad39)*%
X116050000Y-59337500D03*
%TO.P,U2,40,PB4*%
%TO.N,unconnected-(U2-Pad40)*%
X115550000Y-59337500D03*
%TO.P,U2,41,PB5*%
%TO.N,unconnected-(U2-Pad41)*%
X115050000Y-59337500D03*
%TO.P,U2,42,PB6*%
%TO.N,/USART1_TX*%
X114550000Y-59337500D03*
%TO.P,U2,43,PB7*%
%TO.N,/USART1_RX*%
X114050000Y-59337500D03*
%TO.P,U2,44,BOOT0*%
%TO.N,/BOOT0*%
X113550000Y-59337500D03*
%TO.P,U2,45,PB8*%
%TO.N,unconnected-(U2-Pad45)*%
X113050000Y-59337500D03*
%TO.P,U2,46,PB9*%
%TO.N,unconnected-(U2-Pad46)*%
X112550000Y-59337500D03*
%TO.P,U2,47,VSS*%
%TO.N,GND*%
X112050000Y-59337500D03*
%TO.P,U2,48,VDD*%
%TO.N,+3.3V*%
X111550000Y-59337500D03*
%TD*%
D31*
%TO.N,GND*%
X131267200Y-60858400D03*
%TO.N,+3.3V*%
X109626400Y-53187600D03*
%TO.N,GND*%
X114300000Y-51917600D03*
X98298000Y-60756800D03*
X104597200Y-61722000D03*
X105308400Y-63398400D03*
X98247200Y-67564000D03*
X98145600Y-51511200D03*
X127660400Y-69697600D03*
X127711200Y-68427600D03*
X128270000Y-73660000D03*
X131419600Y-71577200D03*
X130200400Y-71577200D03*
X105308400Y-66649600D03*
X109778800Y-71983600D03*
X112064800Y-72085200D03*
X119024400Y-73558400D03*
X116535200Y-66141600D03*
X112674400Y-61010800D03*
X111556800Y-64262000D03*
%TD*%
D32*
%TO.N,unconnected-(J4-Pad6)*%
X133125000Y-58445000D02*
X133275000Y-58295000D01*
X133125000Y-65895000D02*
X133275000Y-66045000D01*
%TO.N,GND*%
X98145600Y-53725600D02*
X97430000Y-54441200D01*
X98145600Y-51511200D02*
X98145600Y-53725600D01*
%TO.N,+3.3V*%
X110801600Y-60750000D02*
X111550000Y-60001600D01*
X110137500Y-60750000D02*
X110801600Y-60750000D01*
X111550000Y-60001600D02*
X111550000Y-59337500D01*
%TO.N,GND*%
X112674400Y-61010800D02*
X112050000Y-60386400D01*
X112050000Y-60386400D02*
X112050000Y-59337500D01*
X131255600Y-60870000D02*
X131267200Y-60858400D01*
X129425000Y-60870000D02*
X131255600Y-60870000D01*
%TO.N,+3.3V*%
X95656400Y-68072000D02*
X101175200Y-73590800D01*
X95656400Y-59664800D02*
X95656400Y-68072000D01*
X97430000Y-58941200D02*
X96380000Y-58941200D01*
X96380000Y-58941200D02*
X95656400Y-59664800D01*
X101175200Y-73590800D02*
X107340400Y-73590800D01*
X123180000Y-45466000D02*
X124958000Y-47244000D01*
X114137600Y-45466000D02*
X123180000Y-45466000D01*
X112359600Y-47244000D02*
X114137600Y-45466000D01*
X109778800Y-54305200D02*
X110756300Y-54305200D01*
X109626400Y-54152800D02*
X109778800Y-54305200D01*
X110756300Y-54305200D02*
X111162700Y-53898800D01*
X109626400Y-53187600D02*
X109626400Y-54152800D01*
%TO.N,GND*%
X114287700Y-51929900D02*
X114300000Y-51917600D01*
X114287700Y-53898800D02*
X114287700Y-51929900D01*
X114338500Y-53949600D02*
X114287700Y-53898800D01*
X114338500Y-56388000D02*
X114338500Y-53949600D01*
%TO.N,/USART1_TX*%
X109819600Y-48656400D02*
X109819600Y-47244000D01*
X110337600Y-49174400D02*
X109819600Y-48656400D01*
X113995200Y-49174400D02*
X110337600Y-49174400D01*
X117348000Y-52527200D02*
X113995200Y-49174400D01*
X114798959Y-58250000D02*
X115130400Y-58250000D01*
X115130400Y-58250000D02*
X117348000Y-56032400D01*
X114550000Y-59337500D02*
X114550000Y-58498959D01*
X114550000Y-58498959D02*
X114798959Y-58250000D01*
X117348000Y-56032400D02*
X117348000Y-52527200D01*
%TO.N,GND*%
X100037500Y-59017300D02*
X98298000Y-60756800D01*
X100037500Y-58851800D02*
X100037500Y-59017300D01*
%TO.N,+3.3V*%
X97730000Y-58941200D02*
X97430000Y-58941200D01*
X98530000Y-58141200D02*
X97730000Y-58941200D01*
X99872800Y-56438800D02*
X98530000Y-57781600D01*
X103391100Y-56438800D02*
X99872800Y-56438800D01*
X98530000Y-57781600D02*
X98530000Y-58141200D01*
X107213400Y-60261100D02*
X103391100Y-56438800D01*
%TO.N,GND*%
X104595000Y-61719800D02*
X104597200Y-61722000D01*
X102724600Y-61719800D02*
X104595000Y-61719800D01*
X105320700Y-63386100D02*
X105308400Y-63398400D01*
X107213400Y-63386100D02*
X105320700Y-63386100D01*
%TO.N,/HSE_IN*%
X104444800Y-59791600D02*
X104444800Y-59334400D01*
X104444800Y-59334400D02*
X103962200Y-58851800D01*
X103962200Y-58851800D02*
X103162500Y-58851800D01*
X106375200Y-61722000D02*
X104444800Y-59791600D01*
X108204000Y-61722000D02*
X106375200Y-61722000D01*
X109232000Y-62750000D02*
X108204000Y-61722000D01*
X110137500Y-62750000D02*
X109232000Y-62750000D01*
%TO.N,GND*%
X100062900Y-67564000D02*
X98247200Y-67564000D01*
X100424600Y-67202300D02*
X100062900Y-67564000D01*
X100424600Y-64619800D02*
X100424600Y-67202300D01*
%TO.N,Net-(R4-Pad1)*%
X99339400Y-54940200D02*
X97430000Y-56849600D01*
X104139400Y-54940200D02*
X99339400Y-54940200D01*
X97430000Y-56849600D02*
X97430000Y-57441200D01*
D33*
%TO.N,+3.3V*%
X124958000Y-55971600D02*
X125831600Y-56845200D01*
X124958000Y-47244000D02*
X124958000Y-55971600D01*
X120560700Y-57848900D02*
X120560700Y-58724800D01*
X121564400Y-56845200D02*
X120560700Y-57848900D01*
X125831600Y-56845200D02*
X121564400Y-56845200D01*
X126339600Y-58648000D02*
X126339600Y-57353200D01*
X126339600Y-57353200D02*
X125831600Y-56845200D01*
X110677800Y-83703000D02*
X110677800Y-82931000D01*
X112115600Y-85140800D02*
X110677800Y-83703000D01*
X120497600Y-85140800D02*
X112115600Y-85140800D01*
X122478800Y-80568800D02*
X122478800Y-83159600D01*
X122478800Y-80568800D02*
X123546000Y-80568800D01*
X122478800Y-83159600D02*
X120497600Y-85140800D01*
X121107800Y-80568800D02*
X122478800Y-80568800D01*
X120446800Y-72796400D02*
X118110000Y-70459600D01*
X118110000Y-70459600D02*
X116624500Y-70459600D01*
X120446800Y-77622400D02*
X120446800Y-72796400D01*
X119482200Y-78587000D02*
X120446800Y-77622400D01*
X119482200Y-78943200D02*
X119482200Y-78587000D01*
X123546000Y-80568800D02*
X125857000Y-78257800D01*
X119482200Y-78943200D02*
X121107800Y-80568800D01*
X132588000Y-76504800D02*
X131025500Y-76504800D01*
X131025500Y-76504800D02*
X130886200Y-76365500D01*
X133502400Y-75590400D02*
X132588000Y-76504800D01*
X133502400Y-74100800D02*
X133502400Y-75590400D01*
D32*
%TO.N,GND*%
X105956500Y-66001500D02*
X105308400Y-66649600D01*
X107238800Y-66001500D02*
X105956500Y-66001500D01*
X109829600Y-72034400D02*
X109778800Y-71983600D01*
X109829600Y-73444500D02*
X109829600Y-72034400D01*
X113499500Y-70650500D02*
X112064800Y-72085200D01*
X113499500Y-70459600D02*
X113499500Y-70650500D01*
%TO.N,/NRST*%
X111988600Y-73533000D02*
X114286900Y-73533000D01*
X111201200Y-72745600D02*
X111988600Y-73533000D01*
X111201200Y-69189600D02*
X111201200Y-72745600D01*
X113233200Y-63804800D02*
X113233200Y-64640759D01*
X112877600Y-63449200D02*
X113233200Y-63804800D01*
X110744000Y-67129959D02*
X110744000Y-68732400D01*
X110744000Y-68732400D02*
X111201200Y-69189600D01*
X111276841Y-63449200D02*
X112877600Y-63449200D01*
X110976041Y-63750000D02*
X111276841Y-63449200D01*
X113233200Y-64640759D02*
X110744000Y-67129959D01*
X110137500Y-63750000D02*
X110976041Y-63750000D01*
%TO.N,+3.3VA*%
X108311700Y-70319500D02*
X107340400Y-71290800D01*
X109829600Y-70319500D02*
X108311700Y-70319500D01*
%TO.N,GND*%
X110363000Y-73393700D02*
X110363000Y-73482200D01*
X118999000Y-73533000D02*
X119024400Y-73558400D01*
X117411900Y-73533000D02*
X118999000Y-73533000D01*
X110426900Y-76352400D02*
X110426900Y-73457600D01*
X110426900Y-73457600D02*
X110363000Y-73393700D01*
X125311300Y-60350400D02*
X123685700Y-58724800D01*
X127660400Y-60350400D02*
X125311300Y-60350400D01*
X128255000Y-60945000D02*
X127660400Y-60350400D01*
X129402600Y-60945000D02*
X128255000Y-60945000D01*
X129425000Y-60922600D02*
X129402600Y-60945000D01*
X129425000Y-60870000D02*
X129425000Y-60922600D01*
X116550000Y-66156400D02*
X116535200Y-66141600D01*
X116550000Y-67662500D02*
X116550000Y-66156400D01*
X111544800Y-64250000D02*
X111556800Y-64262000D01*
X110137500Y-64250000D02*
X111544800Y-64250000D01*
%TO.N,/PWR_LED_K*%
X133502400Y-70205000D02*
X132334600Y-69037200D01*
X133502400Y-72050800D02*
X133502400Y-70205000D01*
%TO.N,/USART1_RX*%
X107279600Y-49113600D02*
X107279600Y-47244000D01*
X109524800Y-49530000D02*
X107696000Y-49530000D01*
X113022000Y-53027200D02*
X109524800Y-49530000D01*
X107696000Y-49530000D02*
X107279600Y-49113600D01*
X113022000Y-57091200D02*
X113022000Y-53027200D01*
X114050000Y-58119200D02*
X113022000Y-57091200D01*
X114050000Y-59337500D02*
X114050000Y-58119200D01*
%TO.N,/BOOT0*%
X107239400Y-54304600D02*
X107239400Y-54940200D01*
X112522000Y-53238400D02*
X111302800Y-52019200D01*
X109524800Y-52019200D02*
X107239400Y-54304600D01*
X112522000Y-57454800D02*
X112522000Y-53238400D01*
X113550000Y-58482800D02*
X112522000Y-57454800D01*
X111302800Y-52019200D02*
X109524800Y-52019200D01*
X113550000Y-59337500D02*
X113550000Y-58482800D01*
%TO.N,/SWCLK*%
X119878000Y-48778000D02*
X119878000Y-47244000D01*
X118668800Y-49987200D02*
X119878000Y-48778000D01*
X118668800Y-57718700D02*
X118668800Y-49987200D01*
X117050000Y-59337500D02*
X118668800Y-57718700D01*
%TO.N,+3.3V*%
X111213500Y-53949600D02*
X111162700Y-53898800D01*
X111213500Y-56388000D02*
X111213500Y-53949600D01*
X111213500Y-57771900D02*
X111213500Y-56388000D01*
X111550000Y-58108400D02*
X111213500Y-57771900D01*
%TO.N,/SWDIO*%
X119385400Y-57404000D02*
X122418000Y-54371400D01*
X117375000Y-60374200D02*
X119385400Y-58363800D01*
X117623959Y-61750000D02*
X117375000Y-61501041D01*
X122418000Y-54371400D02*
X122418000Y-47244000D01*
X119385400Y-58363800D02*
X119385400Y-57404000D01*
X117375000Y-61501041D02*
X117375000Y-60374200D01*
X118462500Y-61750000D02*
X117623959Y-61750000D01*
D33*
%TO.N,+3.3V*%
X107340400Y-76313900D02*
X107301900Y-76352400D01*
X107340400Y-73590800D02*
X107340400Y-76313900D01*
X109867300Y-78917800D02*
X110997400Y-78917800D01*
X107301900Y-76352400D02*
X109867300Y-78917800D01*
X110677800Y-79237400D02*
X110997400Y-78917800D01*
X110677800Y-82931000D02*
X110677800Y-79237400D01*
D32*
%TO.N,/I2C2_SDA*%
X116433600Y-80467200D02*
X116433600Y-78994600D01*
X115757800Y-81143000D02*
X116433600Y-80467200D01*
X116433600Y-78994600D02*
X116382200Y-78943200D01*
X115757800Y-82931000D02*
X115757800Y-81143000D01*
%TO.N,/I2C2_SCL*%
X114097400Y-79653800D02*
X114097400Y-78917800D01*
X113217800Y-80533400D02*
X114097400Y-79653800D01*
X113217800Y-82931000D02*
X113217800Y-80533400D01*
D34*
%TO.N,/USB_D+*%
X129320001Y-62274999D02*
X129425000Y-62170000D01*
X118487499Y-62274999D02*
X129320001Y-62274999D01*
X118462500Y-62250000D02*
X118487499Y-62274999D01*
%TO.N,/USB_D-*%
X129330001Y-62725001D02*
X129425000Y-62820000D01*
X118487499Y-62725001D02*
X129330001Y-62725001D01*
X118462500Y-62750000D02*
X118487499Y-62725001D01*
D32*
%TO.N,GND*%
X120512400Y-61250000D02*
X123037600Y-58724800D01*
X118462500Y-61250000D02*
X120512400Y-61250000D01*
X123037600Y-58724800D02*
X123685700Y-58724800D01*
%TO.N,+3.3V*%
X118462500Y-60750000D02*
X118535500Y-60750000D01*
X118535500Y-60750000D02*
X120560700Y-58724800D01*
%TO.N,/I2C2_SDA*%
X115417600Y-69748400D02*
X115417600Y-71530494D01*
X116050000Y-69116000D02*
X115417600Y-69748400D01*
X116382200Y-72495094D02*
X116382200Y-78943200D01*
X116050000Y-67662500D02*
X116050000Y-69116000D01*
X115417600Y-71530494D02*
X116382200Y-72495094D01*
%TO.N,/I2C2_SCL*%
X115468400Y-72288400D02*
X114858800Y-71678800D01*
X114858800Y-71678800D02*
X114858800Y-69443600D01*
X114097400Y-76250200D02*
X115468400Y-74879200D01*
X115468400Y-74879200D02*
X115468400Y-72288400D01*
X114858800Y-69443600D02*
X115550000Y-68752400D01*
X114097400Y-78917800D02*
X114097400Y-76250200D01*
X115550000Y-68752400D02*
X115550000Y-67662500D01*
%TO.N,+3.3V*%
X117050000Y-68674800D02*
X116624500Y-69100300D01*
X116624500Y-69100300D02*
X116624500Y-70459600D01*
X117050000Y-67662500D02*
X117050000Y-68674800D01*
%TO.N,+3.3VA*%
X108712000Y-68427600D02*
X108013100Y-69126500D01*
X108712000Y-65328800D02*
X108712000Y-68427600D01*
X109290800Y-64750000D02*
X108712000Y-65328800D01*
X108013100Y-69126500D02*
X107238800Y-69126500D01*
X110137500Y-64750000D02*
X109290800Y-64750000D01*
D33*
X107340400Y-69228100D02*
X107238800Y-69126500D01*
X107340400Y-71290800D02*
X107340400Y-69228100D01*
D32*
%TO.N,/HSE_OUT*%
X107890728Y-64619800D02*
X109260528Y-63250000D01*
X109260528Y-63250000D02*
X110137500Y-63250000D01*
X102724600Y-64619800D02*
X107890728Y-64619800D01*
%TO.N,/HSE_IN*%
X101396800Y-60597600D02*
X101396800Y-59740800D01*
X100424600Y-61569800D02*
X101396800Y-60597600D01*
X102285800Y-58851800D02*
X103162500Y-58851800D01*
X100424600Y-61719800D02*
X100424600Y-61569800D01*
X101396800Y-59740800D02*
X102285800Y-58851800D01*
%TO.N,/HSE_OUT*%
X102724600Y-67266200D02*
X102724600Y-64619800D01*
X103187900Y-67729500D02*
X102724600Y-67266200D01*
X103187900Y-67564000D02*
X103187900Y-67729500D01*
%TO.N,GND*%
X107682900Y-63855600D02*
X107213400Y-63386100D01*
%TO.N,+3.3V*%
X108775100Y-60261100D02*
X107213400Y-60261100D01*
X109264000Y-60750000D02*
X108775100Y-60261100D01*
X110137500Y-60750000D02*
X109264000Y-60750000D01*
X111201200Y-56146300D02*
X111213500Y-56134000D01*
X111550000Y-59337500D02*
X111550000Y-58108400D01*
%TD*%
%TA.AperFunction,Conductor*%
%TO.N,GND*%
G36*
X130040099Y-67584002D02*
G01*
X130083444Y-67631253D01*
X130887774Y-69157417D01*
X132027239Y-71319480D01*
X132030912Y-71327052D01*
X132221540Y-71755964D01*
X132232400Y-71807138D01*
X132232400Y-74115810D01*
X132212398Y-74183931D01*
X132195495Y-74204905D01*
X131913546Y-74486854D01*
X131851234Y-74520880D01*
X131824835Y-74523758D01*
X127682812Y-74536375D01*
X127614630Y-74516581D01*
X127577726Y-74480472D01*
X127393240Y-74204905D01*
X127230349Y-73961596D01*
X127209053Y-73890832D01*
X127225068Y-70872338D01*
X127225068Y-70872336D01*
X127225146Y-70857552D01*
X126920388Y-70245453D01*
X126903126Y-70245575D01*
X126903125Y-70245575D01*
X125414607Y-70256115D01*
X125341459Y-70233341D01*
X124920144Y-69938421D01*
X124875808Y-69882970D01*
X124866400Y-69835198D01*
X124866400Y-67971790D01*
X124886402Y-67903669D01*
X124903305Y-67882695D01*
X125185095Y-67600905D01*
X125247407Y-67566879D01*
X125274190Y-67564000D01*
X129971978Y-67564000D01*
X130040099Y-67584002D01*
G37*
%TD.AperFunction*%
%TD*%
%TA.AperFunction,Conductor*%
%TO.N,+3.3V*%
G36*
X126406331Y-70632002D02*
G01*
X126427305Y-70648905D01*
X126658971Y-70880571D01*
X126692997Y-70942883D01*
X126695865Y-70968030D01*
X126697179Y-71069200D01*
X126746000Y-74828400D01*
X128510713Y-75319938D01*
X129384781Y-75297492D01*
X131771922Y-75236189D01*
X131840534Y-75254435D01*
X131864252Y-75273052D01*
X132346083Y-75754883D01*
X132380109Y-75817195D01*
X132382913Y-75848320D01*
X132336329Y-77199254D01*
X132313991Y-77266645D01*
X132276440Y-77302221D01*
X131703973Y-77654509D01*
X131637937Y-77673200D01*
X129032000Y-77673200D01*
X129024488Y-77689806D01*
X129024487Y-77689807D01*
X128099880Y-79733675D01*
X128053578Y-79787496D01*
X127986545Y-79807733D01*
X123767906Y-79856787D01*
X123699557Y-79837579D01*
X123660315Y-79798717D01*
X122905074Y-78618653D01*
X122885200Y-78550732D01*
X122885200Y-76984566D01*
X122905202Y-76916445D01*
X122949006Y-76874986D01*
X124761907Y-75846042D01*
X124767752Y-75842924D01*
X124866400Y-75793600D01*
X124872198Y-75254435D01*
X124917197Y-71069444D01*
X124917200Y-71069200D01*
X124917200Y-70962418D01*
X124937202Y-70894297D01*
X124946404Y-70881755D01*
X125133419Y-70657337D01*
X125192395Y-70617810D01*
X125230215Y-70612000D01*
X126338210Y-70612000D01*
X126406331Y-70632002D01*
G37*
%TD.AperFunction*%
%TD*%
%TA.AperFunction,Conductor*%
%TO.N,VBUS*%
G36*
X128506201Y-63213881D02*
G01*
X128545378Y-63240431D01*
X128602287Y-63297241D01*
X128612924Y-63301944D01*
X128612926Y-63301945D01*
X128672462Y-63328265D01*
X128704673Y-63342506D01*
X128730354Y-63345500D01*
X130119646Y-63345500D01*
X130123350Y-63345059D01*
X130123353Y-63345059D01*
X130126640Y-63344668D01*
X130145846Y-63342382D01*
X130146964Y-63341886D01*
X130213588Y-63343040D01*
X130272640Y-63382453D01*
X130301010Y-63447535D01*
X130302000Y-63463303D01*
X130302000Y-63803410D01*
X130281998Y-63871531D01*
X130265095Y-63892505D01*
X130034105Y-64123495D01*
X129971793Y-64157521D01*
X129945010Y-64160400D01*
X128473200Y-64160400D01*
X124002800Y-68072000D01*
X124002800Y-69951600D01*
X124497498Y-70940996D01*
X124510800Y-70997345D01*
X124510800Y-73196425D01*
X124490798Y-73264546D01*
X124467774Y-73291248D01*
X124149365Y-73569856D01*
X124140029Y-73578025D01*
X124075591Y-73607829D01*
X124057057Y-73609200D01*
X122837797Y-73609200D01*
X122769676Y-73589198D01*
X122746327Y-73569856D01*
X121904283Y-72681032D01*
X121871954Y-72617823D01*
X121869761Y-72592991D01*
X121919397Y-68076109D01*
X121940146Y-68008213D01*
X121960632Y-67984262D01*
X122442755Y-67545968D01*
X122506615Y-67514945D01*
X122527512Y-67513200D01*
X123647200Y-67513200D01*
X128371800Y-63236193D01*
X128435724Y-63205305D01*
X128506201Y-63213881D01*
G37*
%TD.AperFunction*%
%TD*%
M02*
