M48
; DRILL file {KiCad (6.0.10)} date Tue Feb 14 22:37:04 2023
; FORMAT={-:-/ absolute / metric / decimal}
; #@! TF.CreationDate,2023-02-14T22:37:04+03:00
; #@! TF.GenerationSoftware,Kicad,Pcbnew,(6.0.10)
; #@! TF.FileFunction,Plated,1,2,PTH
FMAT,2
METRIC
; #@! TA.AperFunction,Plated,PTH,ViaDrill
T1C0.400
; #@! TA.AperFunction,Plated,PTH,ComponentDrill
T2C0.550
; #@! TA.AperFunction,Plated,PTH,ComponentDrill
T3C0.850
; #@! TA.AperFunction,Plated,PTH,ComponentDrill
T4C1.000
%
G90
G05
T1
X98.146Y-51.511
X98.247Y-67.564
X98.298Y-60.757
X104.597Y-61.722
X105.308Y-63.398
X105.308Y-66.65
X109.626Y-53.188
X109.779Y-71.984
X111.557Y-64.262
X112.065Y-72.085
X112.674Y-61.011
X114.3Y-51.918
X116.535Y-66.142
X119.024Y-73.558
X127.66Y-69.698
X127.711Y-68.428
X128.27Y-73.66
X130.2Y-71.577
X131.267Y-60.858
X131.42Y-71.577
T4
X104.74Y-47.244
X107.28Y-47.244
X109.82Y-47.244
X110.678Y-82.931
X112.36Y-47.244
X113.218Y-82.931
X115.758Y-82.931
X117.338Y-47.244
X118.298Y-82.931
X119.878Y-47.244
X122.418Y-47.244
X124.958Y-47.244
T2
G00X132.95Y-58.295
M15
G01X133.6Y-58.295
M16
G05
G00X132.95Y-66.045
M15
G01X133.6Y-66.045
M16
G05
T3
G00X129.2Y-58.445
M15
G01X129.75Y-58.445
M16
G05
G00X129.2Y-65.895
M15
G01X129.75Y-65.895
M16
G05
T0
M30
