%TF.GenerationSoftware,KiCad,Pcbnew,(6.0.10)*%
%TF.CreationDate,2023-02-14T22:37:11+03:00*%
%TF.ProjectId,BluePill,426c7565-5069-46c6-9c2e-6b696361645f,rev?*%
%TF.SameCoordinates,Original*%
%TF.FileFunction,Soldermask,Top*%
%TF.FilePolarity,Negative*%
%FSLAX46Y46*%
G04 Gerber Fmt 4.6, Leading zero omitted, Abs format (unit mm)*
G04 Created by KiCad (PCBNEW (6.0.10)) date 2023-02-14 22:37:11*
%MOMM*%
%LPD*%
G01*
G04 APERTURE LIST*
G04 Aperture macros list*
%AMRoundRect*
0 Rectangle with rounded corners*
0 $1 Rounding radius*
0 $2 $3 $4 $5 $6 $7 $8 $9 X,Y pos of 4 corners*
0 Add a 4 corners polygon primitive as box body*
4,1,4,$2,$3,$4,$5,$6,$7,$8,$9,$2,$3,0*
0 Add four circle primitives for the rounded corners*
1,1,$1+$1,$2,$3*
1,1,$1+$1,$4,$5*
1,1,$1+$1,$6,$7*
1,1,$1+$1,$8,$9*
0 Add four rect primitives between the rounded corners*
20,1,$1+$1,$2,$3,$4,$5,0*
20,1,$1+$1,$4,$5,$6,$7,0*
20,1,$1+$1,$6,$7,$8,$9,0*
20,1,$1+$1,$8,$9,$2,$3,0*%
G04 Aperture macros list end*
%ADD10RoundRect,0.250000X0.412500X0.650000X-0.412500X0.650000X-0.412500X-0.650000X0.412500X-0.650000X0*%
%ADD11C,2.200000*%
%ADD12RoundRect,0.250000X-0.412500X-0.650000X0.412500X-0.650000X0.412500X0.650000X-0.412500X0.650000X0*%
%ADD13RoundRect,0.250000X-0.350000X0.275000X-0.350000X-0.275000X0.350000X-0.275000X0.350000X0.275000X0*%
%ADD14RoundRect,0.250000X-0.650000X0.412500X-0.650000X-0.412500X0.650000X-0.412500X0.650000X0.412500X0*%
%ADD15R,0.800000X1.000000*%
%ADD16C,0.900000*%
%ADD17R,1.500000X0.700000*%
%ADD18RoundRect,0.250000X0.400000X0.625000X-0.400000X0.625000X-0.400000X-0.625000X0.400000X-0.625000X0*%
%ADD19RoundRect,0.250000X-0.625000X0.400000X-0.625000X-0.400000X0.625000X-0.400000X0.625000X0.400000X0*%
%ADD20RoundRect,0.250000X0.650000X-0.412500X0.650000X0.412500X-0.650000X0.412500X-0.650000X-0.412500X0*%
%ADD21R,1.700000X1.700000*%
%ADD22O,1.700000X1.700000*%
%ADD23R,1.800000X2.100000*%
%ADD24R,1.500000X2.000000*%
%ADD25R,3.800000X2.000000*%
%ADD26RoundRect,0.250000X-0.400000X-0.625000X0.400000X-0.625000X0.400000X0.625000X-0.400000X0.625000X0*%
%ADD27RoundRect,0.250000X-0.450000X0.325000X-0.450000X-0.325000X0.450000X-0.325000X0.450000X0.325000X0*%
%ADD28O,0.800000X0.800000*%
%ADD29R,1.300000X0.450000*%
%ADD30O,2.000000X1.450000*%
%ADD31O,1.800000X1.150000*%
%ADD32RoundRect,0.075000X-0.662500X-0.075000X0.662500X-0.075000X0.662500X0.075000X-0.662500X0.075000X0*%
%ADD33RoundRect,0.075000X-0.075000X-0.662500X0.075000X-0.662500X0.075000X0.662500X-0.075000X0.662500X0*%
G04 APERTURE END LIST*
D10*
%TO.C,C5*%
X103162500Y-58851800D03*
X100037500Y-58851800D03*
%TD*%
D11*
%TO.C,H2*%
X97000000Y-82916600D03*
%TD*%
%TO.C,H3*%
X97000000Y-48000000D03*
%TD*%
%TO.C,H4*%
X132000000Y-48000000D03*
%TD*%
D12*
%TO.C,C1*%
X123075300Y-69062600D03*
X126200300Y-69062600D03*
%TD*%
%TO.C,C13*%
X107301900Y-76352400D03*
X110426900Y-76352400D03*
%TD*%
D13*
%TO.C,FB1*%
X107340400Y-71290800D03*
X107340400Y-73590800D03*
%TD*%
D14*
%TO.C,C6*%
X107213400Y-63386100D03*
X107213400Y-60261100D03*
%TD*%
D15*
%TO.C,SW1*%
X94570000Y-53041200D03*
X96780000Y-53041200D03*
X94570000Y-60341200D03*
X96780000Y-60341200D03*
D16*
X95670000Y-58191200D03*
X95670000Y-55191200D03*
D17*
X97430000Y-54441200D03*
X97430000Y-57441200D03*
X97430000Y-58941200D03*
%TD*%
D18*
%TO.C,R3*%
X119482200Y-78943200D03*
X116382200Y-78943200D03*
%TD*%
D19*
%TO.C,R5*%
X126339600Y-61748000D03*
X126339600Y-58648000D03*
%TD*%
D14*
%TO.C,C12*%
X109829600Y-70319500D03*
X109829600Y-73444500D03*
%TD*%
D20*
%TO.C,C2*%
X130886200Y-76365500D03*
X130886200Y-73240500D03*
%TD*%
D21*
%TO.C,J1*%
X112359600Y-47244000D03*
D22*
X109819600Y-47244000D03*
X107279600Y-47244000D03*
X104739600Y-47244000D03*
%TD*%
D23*
%TO.C,Y1*%
X100424600Y-61719800D03*
X100424600Y-64619800D03*
X102724600Y-64619800D03*
X102724600Y-61719800D03*
%TD*%
D12*
%TO.C,C8*%
X120560700Y-58724800D03*
X123685700Y-58724800D03*
%TD*%
D21*
%TO.C,J2*%
X110677800Y-82931000D03*
D22*
X113217800Y-82931000D03*
X115757800Y-82931000D03*
X118297800Y-82931000D03*
%TD*%
D20*
%TO.C,C11*%
X107238800Y-69126500D03*
X107238800Y-66001500D03*
%TD*%
D24*
%TO.C,U1*%
X128157000Y-71957800D03*
X125857000Y-71957800D03*
D25*
X125857000Y-78257800D03*
D24*
X123557000Y-71957800D03*
%TD*%
D26*
%TO.C,R4*%
X104139400Y-54940200D03*
X107239400Y-54940200D03*
%TD*%
D21*
%TO.C,J3*%
X124958000Y-47244000D03*
D22*
X122418000Y-47244000D03*
X119878000Y-47244000D03*
X117338000Y-47244000D03*
%TD*%
D18*
%TO.C,R1*%
X132334600Y-69037200D03*
X129234600Y-69037200D03*
%TD*%
D27*
%TO.C,D1*%
X133502400Y-72050800D03*
X133502400Y-74100800D03*
%TD*%
D28*
%TO.C,J4*%
X130525000Y-64670000D03*
X130525000Y-59670000D03*
D29*
X129425000Y-63470000D03*
X129425000Y-62820000D03*
X129425000Y-62170000D03*
X129425000Y-61520000D03*
X129425000Y-60870000D03*
D30*
X129475000Y-58445000D03*
D31*
X133275000Y-58295000D03*
X133275000Y-66045000D03*
D30*
X129475000Y-65895000D03*
%TD*%
D10*
%TO.C,C9*%
X100062900Y-67564000D03*
X103187900Y-67564000D03*
%TD*%
D26*
%TO.C,R2*%
X110997400Y-78917800D03*
X114097400Y-78917800D03*
%TD*%
D11*
%TO.C,H1*%
X132000000Y-83000000D03*
%TD*%
D12*
%TO.C,C4*%
X114286900Y-73533000D03*
X117411900Y-73533000D03*
%TD*%
%TO.C,C3*%
X111162700Y-53898800D03*
X114287700Y-53898800D03*
%TD*%
D10*
%TO.C,C10*%
X116624500Y-70459600D03*
X113499500Y-70459600D03*
%TD*%
D12*
%TO.C,C7*%
X111213500Y-56388000D03*
X114338500Y-56388000D03*
%TD*%
D32*
%TO.C,U2*%
X110137500Y-60750000D03*
X110137500Y-61250000D03*
X110137500Y-61750000D03*
X110137500Y-62250000D03*
X110137500Y-62750000D03*
X110137500Y-63250000D03*
X110137500Y-63750000D03*
X110137500Y-64250000D03*
X110137500Y-64750000D03*
X110137500Y-65250000D03*
X110137500Y-65750000D03*
X110137500Y-66250000D03*
D33*
X111550000Y-67662500D03*
X112050000Y-67662500D03*
X112550000Y-67662500D03*
X113050000Y-67662500D03*
X113550000Y-67662500D03*
X114050000Y-67662500D03*
X114550000Y-67662500D03*
X115050000Y-67662500D03*
X115550000Y-67662500D03*
X116050000Y-67662500D03*
X116550000Y-67662500D03*
X117050000Y-67662500D03*
D32*
X118462500Y-66250000D03*
X118462500Y-65750000D03*
X118462500Y-65250000D03*
X118462500Y-64750000D03*
X118462500Y-64250000D03*
X118462500Y-63750000D03*
X118462500Y-63250000D03*
X118462500Y-62750000D03*
X118462500Y-62250000D03*
X118462500Y-61750000D03*
X118462500Y-61250000D03*
X118462500Y-60750000D03*
D33*
X117050000Y-59337500D03*
X116550000Y-59337500D03*
X116050000Y-59337500D03*
X115550000Y-59337500D03*
X115050000Y-59337500D03*
X114550000Y-59337500D03*
X114050000Y-59337500D03*
X113550000Y-59337500D03*
X113050000Y-59337500D03*
X112550000Y-59337500D03*
X112050000Y-59337500D03*
X111550000Y-59337500D03*
%TD*%
M02*
